%TF.GenerationSoftware,KiCad,Pcbnew,8.0.4*%
%TF.CreationDate,2025-02-03T15:53:43-05:00*%
%TF.ProjectId,AerospaceBigButton,4165726f-7370-4616-9365-426967427574,rev?*%
%TF.SameCoordinates,Original*%
%TF.FileFunction,Legend,Top*%
%TF.FilePolarity,Positive*%
%FSLAX46Y46*%
G04 Gerber Fmt 4.6, Leading zero omitted, Abs format (unit mm)*
G04 Created by KiCad (PCBNEW 8.0.4) date 2025-02-03 15:53:43*
%MOMM*%
%LPD*%
G01*
G04 APERTURE LIST*
G04 Aperture macros list*
%AMRoundRect*
0 Rectangle with rounded corners*
0 $1 Rounding radius*
0 $2 $3 $4 $5 $6 $7 $8 $9 X,Y pos of 4 corners*
0 Add a 4 corners polygon primitive as box body*
4,1,4,$2,$3,$4,$5,$6,$7,$8,$9,$2,$3,0*
0 Add four circle primitives for the rounded corners*
1,1,$1+$1,$2,$3*
1,1,$1+$1,$4,$5*
1,1,$1+$1,$6,$7*
1,1,$1+$1,$8,$9*
0 Add four rect primitives between the rounded corners*
20,1,$1+$1,$2,$3,$4,$5,0*
20,1,$1+$1,$4,$5,$6,$7,0*
20,1,$1+$1,$6,$7,$8,$9,0*
20,1,$1+$1,$8,$9,$2,$3,0*%
G04 Aperture macros list end*
%ADD10C,0.150000*%
%ADD11C,0.100000*%
%ADD12C,0.120000*%
%ADD13RoundRect,0.250000X-0.262500X-0.450000X0.262500X-0.450000X0.262500X0.450000X-0.262500X0.450000X0*%
%ADD14RoundRect,0.150000X0.150000X-0.587500X0.150000X0.587500X-0.150000X0.587500X-0.150000X-0.587500X0*%
%ADD15RoundRect,0.250000X-0.450000X0.262500X-0.450000X-0.262500X0.450000X-0.262500X0.450000X0.262500X0*%
%ADD16C,3.600000*%
%ADD17C,5.600000*%
%ADD18RoundRect,0.250000X0.450000X-0.262500X0.450000X0.262500X-0.450000X0.262500X-0.450000X-0.262500X0*%
%ADD19RoundRect,0.250000X0.262500X0.450000X-0.262500X0.450000X-0.262500X-0.450000X0.262500X-0.450000X0*%
%ADD20RoundRect,0.250000X0.625000X-0.350000X0.625000X0.350000X-0.625000X0.350000X-0.625000X-0.350000X0*%
%ADD21O,1.750000X1.200000*%
%ADD22R,3.800000X3.800000*%
%ADD23C,3.800000*%
%ADD24O,7.800000X5.000000*%
%ADD25O,9.400000X5.000000*%
%ADD26RoundRect,0.375000X-0.375000X0.625000X-0.375000X-0.625000X0.375000X-0.625000X0.375000X0.625000X0*%
%ADD27RoundRect,0.500000X-1.400000X0.500000X-1.400000X-0.500000X1.400000X-0.500000X1.400000X0.500000X0*%
%ADD28R,0.610000X1.270000*%
%ADD29R,3.910000X3.810000*%
%ADD30R,0.610000X1.020000*%
%ADD31RoundRect,0.250000X-0.250000X-0.475000X0.250000X-0.475000X0.250000X0.475000X-0.250000X0.475000X0*%
%ADD32RoundRect,0.250000X-1.500000X-0.550000X1.500000X-0.550000X1.500000X0.550000X-1.500000X0.550000X0*%
%ADD33C,4.000000*%
%ADD34R,1.700000X1.700000*%
%ADD35O,1.700000X1.700000*%
G04 APERTURE END LIST*
D10*
X52533333Y-66554819D02*
X52200000Y-66078628D01*
X51961905Y-66554819D02*
X51961905Y-65554819D01*
X51961905Y-65554819D02*
X52342857Y-65554819D01*
X52342857Y-65554819D02*
X52438095Y-65602438D01*
X52438095Y-65602438D02*
X52485714Y-65650057D01*
X52485714Y-65650057D02*
X52533333Y-65745295D01*
X52533333Y-65745295D02*
X52533333Y-65888152D01*
X52533333Y-65888152D02*
X52485714Y-65983390D01*
X52485714Y-65983390D02*
X52438095Y-66031009D01*
X52438095Y-66031009D02*
X52342857Y-66078628D01*
X52342857Y-66078628D02*
X51961905Y-66078628D01*
X53390476Y-65554819D02*
X53200000Y-65554819D01*
X53200000Y-65554819D02*
X53104762Y-65602438D01*
X53104762Y-65602438D02*
X53057143Y-65650057D01*
X53057143Y-65650057D02*
X52961905Y-65792914D01*
X52961905Y-65792914D02*
X52914286Y-65983390D01*
X52914286Y-65983390D02*
X52914286Y-66364342D01*
X52914286Y-66364342D02*
X52961905Y-66459580D01*
X52961905Y-66459580D02*
X53009524Y-66507200D01*
X53009524Y-66507200D02*
X53104762Y-66554819D01*
X53104762Y-66554819D02*
X53295238Y-66554819D01*
X53295238Y-66554819D02*
X53390476Y-66507200D01*
X53390476Y-66507200D02*
X53438095Y-66459580D01*
X53438095Y-66459580D02*
X53485714Y-66364342D01*
X53485714Y-66364342D02*
X53485714Y-66126247D01*
X53485714Y-66126247D02*
X53438095Y-66031009D01*
X53438095Y-66031009D02*
X53390476Y-65983390D01*
X53390476Y-65983390D02*
X53295238Y-65935771D01*
X53295238Y-65935771D02*
X53104762Y-65935771D01*
X53104762Y-65935771D02*
X53009524Y-65983390D01*
X53009524Y-65983390D02*
X52961905Y-66031009D01*
X52961905Y-66031009D02*
X52914286Y-66126247D01*
D11*
X94000000Y-24000000D02*
X155500000Y-24000000D01*
X155500000Y-85400000D01*
X94000000Y-85400000D01*
X94000000Y-24000000D01*
D10*
X53750057Y-62695238D02*
X53702438Y-62790476D01*
X53702438Y-62790476D02*
X53607200Y-62885714D01*
X53607200Y-62885714D02*
X53464342Y-63028571D01*
X53464342Y-63028571D02*
X53416723Y-63123809D01*
X53416723Y-63123809D02*
X53416723Y-63219047D01*
X53654819Y-63171428D02*
X53607200Y-63266666D01*
X53607200Y-63266666D02*
X53511961Y-63361904D01*
X53511961Y-63361904D02*
X53321485Y-63409523D01*
X53321485Y-63409523D02*
X52988152Y-63409523D01*
X52988152Y-63409523D02*
X52797676Y-63361904D01*
X52797676Y-63361904D02*
X52702438Y-63266666D01*
X52702438Y-63266666D02*
X52654819Y-63171428D01*
X52654819Y-63171428D02*
X52654819Y-62980952D01*
X52654819Y-62980952D02*
X52702438Y-62885714D01*
X52702438Y-62885714D02*
X52797676Y-62790476D01*
X52797676Y-62790476D02*
X52988152Y-62742857D01*
X52988152Y-62742857D02*
X53321485Y-62742857D01*
X53321485Y-62742857D02*
X53511961Y-62790476D01*
X53511961Y-62790476D02*
X53607200Y-62885714D01*
X53607200Y-62885714D02*
X53654819Y-62980952D01*
X53654819Y-62980952D02*
X53654819Y-63171428D01*
X52750057Y-62361904D02*
X52702438Y-62314285D01*
X52702438Y-62314285D02*
X52654819Y-62219047D01*
X52654819Y-62219047D02*
X52654819Y-61980952D01*
X52654819Y-61980952D02*
X52702438Y-61885714D01*
X52702438Y-61885714D02*
X52750057Y-61838095D01*
X52750057Y-61838095D02*
X52845295Y-61790476D01*
X52845295Y-61790476D02*
X52940533Y-61790476D01*
X52940533Y-61790476D02*
X53083390Y-61838095D01*
X53083390Y-61838095D02*
X53654819Y-62409523D01*
X53654819Y-62409523D02*
X53654819Y-61790476D01*
X83904819Y-58366666D02*
X83428628Y-58699999D01*
X83904819Y-58938094D02*
X82904819Y-58938094D01*
X82904819Y-58938094D02*
X82904819Y-58557142D01*
X82904819Y-58557142D02*
X82952438Y-58461904D01*
X82952438Y-58461904D02*
X83000057Y-58414285D01*
X83000057Y-58414285D02*
X83095295Y-58366666D01*
X83095295Y-58366666D02*
X83238152Y-58366666D01*
X83238152Y-58366666D02*
X83333390Y-58414285D01*
X83333390Y-58414285D02*
X83381009Y-58461904D01*
X83381009Y-58461904D02*
X83428628Y-58557142D01*
X83428628Y-58557142D02*
X83428628Y-58938094D01*
X83904819Y-57890475D02*
X83904819Y-57699999D01*
X83904819Y-57699999D02*
X83857200Y-57604761D01*
X83857200Y-57604761D02*
X83809580Y-57557142D01*
X83809580Y-57557142D02*
X83666723Y-57461904D01*
X83666723Y-57461904D02*
X83476247Y-57414285D01*
X83476247Y-57414285D02*
X83095295Y-57414285D01*
X83095295Y-57414285D02*
X83000057Y-57461904D01*
X83000057Y-57461904D02*
X82952438Y-57509523D01*
X82952438Y-57509523D02*
X82904819Y-57604761D01*
X82904819Y-57604761D02*
X82904819Y-57795237D01*
X82904819Y-57795237D02*
X82952438Y-57890475D01*
X82952438Y-57890475D02*
X83000057Y-57938094D01*
X83000057Y-57938094D02*
X83095295Y-57985713D01*
X83095295Y-57985713D02*
X83333390Y-57985713D01*
X83333390Y-57985713D02*
X83428628Y-57938094D01*
X83428628Y-57938094D02*
X83476247Y-57890475D01*
X83476247Y-57890475D02*
X83523866Y-57795237D01*
X83523866Y-57795237D02*
X83523866Y-57604761D01*
X83523866Y-57604761D02*
X83476247Y-57509523D01*
X83476247Y-57509523D02*
X83428628Y-57461904D01*
X83428628Y-57461904D02*
X83333390Y-57414285D01*
X87424819Y-58331666D02*
X86948628Y-58664999D01*
X87424819Y-58903094D02*
X86424819Y-58903094D01*
X86424819Y-58903094D02*
X86424819Y-58522142D01*
X86424819Y-58522142D02*
X86472438Y-58426904D01*
X86472438Y-58426904D02*
X86520057Y-58379285D01*
X86520057Y-58379285D02*
X86615295Y-58331666D01*
X86615295Y-58331666D02*
X86758152Y-58331666D01*
X86758152Y-58331666D02*
X86853390Y-58379285D01*
X86853390Y-58379285D02*
X86901009Y-58426904D01*
X86901009Y-58426904D02*
X86948628Y-58522142D01*
X86948628Y-58522142D02*
X86948628Y-58903094D01*
X86853390Y-57760237D02*
X86805771Y-57855475D01*
X86805771Y-57855475D02*
X86758152Y-57903094D01*
X86758152Y-57903094D02*
X86662914Y-57950713D01*
X86662914Y-57950713D02*
X86615295Y-57950713D01*
X86615295Y-57950713D02*
X86520057Y-57903094D01*
X86520057Y-57903094D02*
X86472438Y-57855475D01*
X86472438Y-57855475D02*
X86424819Y-57760237D01*
X86424819Y-57760237D02*
X86424819Y-57569761D01*
X86424819Y-57569761D02*
X86472438Y-57474523D01*
X86472438Y-57474523D02*
X86520057Y-57426904D01*
X86520057Y-57426904D02*
X86615295Y-57379285D01*
X86615295Y-57379285D02*
X86662914Y-57379285D01*
X86662914Y-57379285D02*
X86758152Y-57426904D01*
X86758152Y-57426904D02*
X86805771Y-57474523D01*
X86805771Y-57474523D02*
X86853390Y-57569761D01*
X86853390Y-57569761D02*
X86853390Y-57760237D01*
X86853390Y-57760237D02*
X86901009Y-57855475D01*
X86901009Y-57855475D02*
X86948628Y-57903094D01*
X86948628Y-57903094D02*
X87043866Y-57950713D01*
X87043866Y-57950713D02*
X87234342Y-57950713D01*
X87234342Y-57950713D02*
X87329580Y-57903094D01*
X87329580Y-57903094D02*
X87377200Y-57855475D01*
X87377200Y-57855475D02*
X87424819Y-57760237D01*
X87424819Y-57760237D02*
X87424819Y-57569761D01*
X87424819Y-57569761D02*
X87377200Y-57474523D01*
X87377200Y-57474523D02*
X87329580Y-57426904D01*
X87329580Y-57426904D02*
X87234342Y-57379285D01*
X87234342Y-57379285D02*
X87043866Y-57379285D01*
X87043866Y-57379285D02*
X86948628Y-57426904D01*
X86948628Y-57426904D02*
X86901009Y-57474523D01*
X86901009Y-57474523D02*
X86853390Y-57569761D01*
X84804819Y-77854166D02*
X84328628Y-78187499D01*
X84804819Y-78425594D02*
X83804819Y-78425594D01*
X83804819Y-78425594D02*
X83804819Y-78044642D01*
X83804819Y-78044642D02*
X83852438Y-77949404D01*
X83852438Y-77949404D02*
X83900057Y-77901785D01*
X83900057Y-77901785D02*
X83995295Y-77854166D01*
X83995295Y-77854166D02*
X84138152Y-77854166D01*
X84138152Y-77854166D02*
X84233390Y-77901785D01*
X84233390Y-77901785D02*
X84281009Y-77949404D01*
X84281009Y-77949404D02*
X84328628Y-78044642D01*
X84328628Y-78044642D02*
X84328628Y-78425594D01*
X84804819Y-76901785D02*
X84804819Y-77473213D01*
X84804819Y-77187499D02*
X83804819Y-77187499D01*
X83804819Y-77187499D02*
X83947676Y-77282737D01*
X83947676Y-77282737D02*
X84042914Y-77377975D01*
X84042914Y-77377975D02*
X84090533Y-77473213D01*
X85633333Y-75704819D02*
X85300000Y-75228628D01*
X85061905Y-75704819D02*
X85061905Y-74704819D01*
X85061905Y-74704819D02*
X85442857Y-74704819D01*
X85442857Y-74704819D02*
X85538095Y-74752438D01*
X85538095Y-74752438D02*
X85585714Y-74800057D01*
X85585714Y-74800057D02*
X85633333Y-74895295D01*
X85633333Y-74895295D02*
X85633333Y-75038152D01*
X85633333Y-75038152D02*
X85585714Y-75133390D01*
X85585714Y-75133390D02*
X85538095Y-75181009D01*
X85538095Y-75181009D02*
X85442857Y-75228628D01*
X85442857Y-75228628D02*
X85061905Y-75228628D01*
X86538095Y-74704819D02*
X86061905Y-74704819D01*
X86061905Y-74704819D02*
X86014286Y-75181009D01*
X86014286Y-75181009D02*
X86061905Y-75133390D01*
X86061905Y-75133390D02*
X86157143Y-75085771D01*
X86157143Y-75085771D02*
X86395238Y-75085771D01*
X86395238Y-75085771D02*
X86490476Y-75133390D01*
X86490476Y-75133390D02*
X86538095Y-75181009D01*
X86538095Y-75181009D02*
X86585714Y-75276247D01*
X86585714Y-75276247D02*
X86585714Y-75514342D01*
X86585714Y-75514342D02*
X86538095Y-75609580D01*
X86538095Y-75609580D02*
X86490476Y-75657200D01*
X86490476Y-75657200D02*
X86395238Y-75704819D01*
X86395238Y-75704819D02*
X86157143Y-75704819D01*
X86157143Y-75704819D02*
X86061905Y-75657200D01*
X86061905Y-75657200D02*
X86014286Y-75609580D01*
X51404819Y-54733333D02*
X52119104Y-54733333D01*
X52119104Y-54733333D02*
X52261961Y-54780952D01*
X52261961Y-54780952D02*
X52357200Y-54876190D01*
X52357200Y-54876190D02*
X52404819Y-55019047D01*
X52404819Y-55019047D02*
X52404819Y-55114285D01*
X51404819Y-53828571D02*
X51404819Y-54019047D01*
X51404819Y-54019047D02*
X51452438Y-54114285D01*
X51452438Y-54114285D02*
X51500057Y-54161904D01*
X51500057Y-54161904D02*
X51642914Y-54257142D01*
X51642914Y-54257142D02*
X51833390Y-54304761D01*
X51833390Y-54304761D02*
X52214342Y-54304761D01*
X52214342Y-54304761D02*
X52309580Y-54257142D01*
X52309580Y-54257142D02*
X52357200Y-54209523D01*
X52357200Y-54209523D02*
X52404819Y-54114285D01*
X52404819Y-54114285D02*
X52404819Y-53923809D01*
X52404819Y-53923809D02*
X52357200Y-53828571D01*
X52357200Y-53828571D02*
X52309580Y-53780952D01*
X52309580Y-53780952D02*
X52214342Y-53733333D01*
X52214342Y-53733333D02*
X51976247Y-53733333D01*
X51976247Y-53733333D02*
X51881009Y-53780952D01*
X51881009Y-53780952D02*
X51833390Y-53828571D01*
X51833390Y-53828571D02*
X51785771Y-53923809D01*
X51785771Y-53923809D02*
X51785771Y-54114285D01*
X51785771Y-54114285D02*
X51833390Y-54209523D01*
X51833390Y-54209523D02*
X51881009Y-54257142D01*
X51881009Y-54257142D02*
X51976247Y-54304761D01*
X76298333Y-62494819D02*
X75965000Y-62018628D01*
X75726905Y-62494819D02*
X75726905Y-61494819D01*
X75726905Y-61494819D02*
X76107857Y-61494819D01*
X76107857Y-61494819D02*
X76203095Y-61542438D01*
X76203095Y-61542438D02*
X76250714Y-61590057D01*
X76250714Y-61590057D02*
X76298333Y-61685295D01*
X76298333Y-61685295D02*
X76298333Y-61828152D01*
X76298333Y-61828152D02*
X76250714Y-61923390D01*
X76250714Y-61923390D02*
X76203095Y-61971009D01*
X76203095Y-61971009D02*
X76107857Y-62018628D01*
X76107857Y-62018628D02*
X75726905Y-62018628D01*
X76631667Y-61494819D02*
X77250714Y-61494819D01*
X77250714Y-61494819D02*
X76917381Y-61875771D01*
X76917381Y-61875771D02*
X77060238Y-61875771D01*
X77060238Y-61875771D02*
X77155476Y-61923390D01*
X77155476Y-61923390D02*
X77203095Y-61971009D01*
X77203095Y-61971009D02*
X77250714Y-62066247D01*
X77250714Y-62066247D02*
X77250714Y-62304342D01*
X77250714Y-62304342D02*
X77203095Y-62399580D01*
X77203095Y-62399580D02*
X77155476Y-62447200D01*
X77155476Y-62447200D02*
X77060238Y-62494819D01*
X77060238Y-62494819D02*
X76774524Y-62494819D01*
X76774524Y-62494819D02*
X76679286Y-62447200D01*
X76679286Y-62447200D02*
X76631667Y-62399580D01*
X82066666Y-23254819D02*
X82066666Y-23969104D01*
X82066666Y-23969104D02*
X82019047Y-24111961D01*
X82019047Y-24111961D02*
X81923809Y-24207200D01*
X81923809Y-24207200D02*
X81780952Y-24254819D01*
X81780952Y-24254819D02*
X81685714Y-24254819D01*
X82447619Y-23254819D02*
X83066666Y-23254819D01*
X83066666Y-23254819D02*
X82733333Y-23635771D01*
X82733333Y-23635771D02*
X82876190Y-23635771D01*
X82876190Y-23635771D02*
X82971428Y-23683390D01*
X82971428Y-23683390D02*
X83019047Y-23731009D01*
X83019047Y-23731009D02*
X83066666Y-23826247D01*
X83066666Y-23826247D02*
X83066666Y-24064342D01*
X83066666Y-24064342D02*
X83019047Y-24159580D01*
X83019047Y-24159580D02*
X82971428Y-24207200D01*
X82971428Y-24207200D02*
X82876190Y-24254819D01*
X82876190Y-24254819D02*
X82590476Y-24254819D01*
X82590476Y-24254819D02*
X82495238Y-24207200D01*
X82495238Y-24207200D02*
X82447619Y-24159580D01*
X87328571Y-28054700D02*
X88471429Y-28054700D01*
X74328571Y-28054700D02*
X75471429Y-28054700D01*
X74900000Y-28626128D02*
X74900000Y-27483271D01*
D11*
X123666667Y-54909800D02*
X123809524Y-54957419D01*
X123809524Y-54957419D02*
X124047619Y-54957419D01*
X124047619Y-54957419D02*
X124142857Y-54909800D01*
X124142857Y-54909800D02*
X124190476Y-54862180D01*
X124190476Y-54862180D02*
X124238095Y-54766942D01*
X124238095Y-54766942D02*
X124238095Y-54671704D01*
X124238095Y-54671704D02*
X124190476Y-54576466D01*
X124190476Y-54576466D02*
X124142857Y-54528847D01*
X124142857Y-54528847D02*
X124047619Y-54481228D01*
X124047619Y-54481228D02*
X123857143Y-54433609D01*
X123857143Y-54433609D02*
X123761905Y-54385990D01*
X123761905Y-54385990D02*
X123714286Y-54338371D01*
X123714286Y-54338371D02*
X123666667Y-54243133D01*
X123666667Y-54243133D02*
X123666667Y-54147895D01*
X123666667Y-54147895D02*
X123714286Y-54052657D01*
X123714286Y-54052657D02*
X123761905Y-54005038D01*
X123761905Y-54005038D02*
X123857143Y-53957419D01*
X123857143Y-53957419D02*
X124095238Y-53957419D01*
X124095238Y-53957419D02*
X124238095Y-54005038D01*
X124571429Y-53957419D02*
X124809524Y-54957419D01*
X124809524Y-54957419D02*
X125000000Y-54243133D01*
X125000000Y-54243133D02*
X125190476Y-54957419D01*
X125190476Y-54957419D02*
X125428572Y-53957419D01*
X126333333Y-54957419D02*
X125761905Y-54957419D01*
X126047619Y-54957419D02*
X126047619Y-53957419D01*
X126047619Y-53957419D02*
X125952381Y-54100276D01*
X125952381Y-54100276D02*
X125857143Y-54195514D01*
X125857143Y-54195514D02*
X125761905Y-54243133D01*
D10*
X69754819Y-49361904D02*
X70564342Y-49361904D01*
X70564342Y-49361904D02*
X70659580Y-49314285D01*
X70659580Y-49314285D02*
X70707200Y-49266666D01*
X70707200Y-49266666D02*
X70754819Y-49171428D01*
X70754819Y-49171428D02*
X70754819Y-48980952D01*
X70754819Y-48980952D02*
X70707200Y-48885714D01*
X70707200Y-48885714D02*
X70659580Y-48838095D01*
X70659580Y-48838095D02*
X70564342Y-48790476D01*
X70564342Y-48790476D02*
X69754819Y-48790476D01*
X70754819Y-47790476D02*
X70754819Y-48361904D01*
X70754819Y-48076190D02*
X69754819Y-48076190D01*
X69754819Y-48076190D02*
X69897676Y-48171428D01*
X69897676Y-48171428D02*
X69992914Y-48266666D01*
X69992914Y-48266666D02*
X70040533Y-48361904D01*
X70904761Y-33350057D02*
X70809523Y-33302438D01*
X70809523Y-33302438D02*
X70714285Y-33207200D01*
X70714285Y-33207200D02*
X70571428Y-33064342D01*
X70571428Y-33064342D02*
X70476190Y-33016723D01*
X70476190Y-33016723D02*
X70380952Y-33016723D01*
X70428571Y-33254819D02*
X70333333Y-33207200D01*
X70333333Y-33207200D02*
X70238095Y-33111961D01*
X70238095Y-33111961D02*
X70190476Y-32921485D01*
X70190476Y-32921485D02*
X70190476Y-32588152D01*
X70190476Y-32588152D02*
X70238095Y-32397676D01*
X70238095Y-32397676D02*
X70333333Y-32302438D01*
X70333333Y-32302438D02*
X70428571Y-32254819D01*
X70428571Y-32254819D02*
X70619047Y-32254819D01*
X70619047Y-32254819D02*
X70714285Y-32302438D01*
X70714285Y-32302438D02*
X70809523Y-32397676D01*
X70809523Y-32397676D02*
X70857142Y-32588152D01*
X70857142Y-32588152D02*
X70857142Y-32921485D01*
X70857142Y-32921485D02*
X70809523Y-33111961D01*
X70809523Y-33111961D02*
X70714285Y-33207200D01*
X70714285Y-33207200D02*
X70619047Y-33254819D01*
X70619047Y-33254819D02*
X70428571Y-33254819D01*
X71809523Y-33254819D02*
X71238095Y-33254819D01*
X71523809Y-33254819D02*
X71523809Y-32254819D01*
X71523809Y-32254819D02*
X71428571Y-32397676D01*
X71428571Y-32397676D02*
X71333333Y-32492914D01*
X71333333Y-32492914D02*
X71238095Y-32540533D01*
X70433333Y-54959580D02*
X70385714Y-55007200D01*
X70385714Y-55007200D02*
X70242857Y-55054819D01*
X70242857Y-55054819D02*
X70147619Y-55054819D01*
X70147619Y-55054819D02*
X70004762Y-55007200D01*
X70004762Y-55007200D02*
X69909524Y-54911961D01*
X69909524Y-54911961D02*
X69861905Y-54816723D01*
X69861905Y-54816723D02*
X69814286Y-54626247D01*
X69814286Y-54626247D02*
X69814286Y-54483390D01*
X69814286Y-54483390D02*
X69861905Y-54292914D01*
X69861905Y-54292914D02*
X69909524Y-54197676D01*
X69909524Y-54197676D02*
X70004762Y-54102438D01*
X70004762Y-54102438D02*
X70147619Y-54054819D01*
X70147619Y-54054819D02*
X70242857Y-54054819D01*
X70242857Y-54054819D02*
X70385714Y-54102438D01*
X70385714Y-54102438D02*
X70433333Y-54150057D01*
X70814286Y-54150057D02*
X70861905Y-54102438D01*
X70861905Y-54102438D02*
X70957143Y-54054819D01*
X70957143Y-54054819D02*
X71195238Y-54054819D01*
X71195238Y-54054819D02*
X71290476Y-54102438D01*
X71290476Y-54102438D02*
X71338095Y-54150057D01*
X71338095Y-54150057D02*
X71385714Y-54245295D01*
X71385714Y-54245295D02*
X71385714Y-54340533D01*
X71385714Y-54340533D02*
X71338095Y-54483390D01*
X71338095Y-54483390D02*
X70766667Y-55054819D01*
X70766667Y-55054819D02*
X71385714Y-55054819D01*
X85833333Y-36359580D02*
X85785714Y-36407200D01*
X85785714Y-36407200D02*
X85642857Y-36454819D01*
X85642857Y-36454819D02*
X85547619Y-36454819D01*
X85547619Y-36454819D02*
X85404762Y-36407200D01*
X85404762Y-36407200D02*
X85309524Y-36311961D01*
X85309524Y-36311961D02*
X85261905Y-36216723D01*
X85261905Y-36216723D02*
X85214286Y-36026247D01*
X85214286Y-36026247D02*
X85214286Y-35883390D01*
X85214286Y-35883390D02*
X85261905Y-35692914D01*
X85261905Y-35692914D02*
X85309524Y-35597676D01*
X85309524Y-35597676D02*
X85404762Y-35502438D01*
X85404762Y-35502438D02*
X85547619Y-35454819D01*
X85547619Y-35454819D02*
X85642857Y-35454819D01*
X85642857Y-35454819D02*
X85785714Y-35502438D01*
X85785714Y-35502438D02*
X85833333Y-35550057D01*
X86166667Y-35454819D02*
X86785714Y-35454819D01*
X86785714Y-35454819D02*
X86452381Y-35835771D01*
X86452381Y-35835771D02*
X86595238Y-35835771D01*
X86595238Y-35835771D02*
X86690476Y-35883390D01*
X86690476Y-35883390D02*
X86738095Y-35931009D01*
X86738095Y-35931009D02*
X86785714Y-36026247D01*
X86785714Y-36026247D02*
X86785714Y-36264342D01*
X86785714Y-36264342D02*
X86738095Y-36359580D01*
X86738095Y-36359580D02*
X86690476Y-36407200D01*
X86690476Y-36407200D02*
X86595238Y-36454819D01*
X86595238Y-36454819D02*
X86309524Y-36454819D01*
X86309524Y-36454819D02*
X86214286Y-36407200D01*
X86214286Y-36407200D02*
X86166667Y-36359580D01*
X85633333Y-69804819D02*
X85300000Y-69328628D01*
X85061905Y-69804819D02*
X85061905Y-68804819D01*
X85061905Y-68804819D02*
X85442857Y-68804819D01*
X85442857Y-68804819D02*
X85538095Y-68852438D01*
X85538095Y-68852438D02*
X85585714Y-68900057D01*
X85585714Y-68900057D02*
X85633333Y-68995295D01*
X85633333Y-68995295D02*
X85633333Y-69138152D01*
X85633333Y-69138152D02*
X85585714Y-69233390D01*
X85585714Y-69233390D02*
X85538095Y-69281009D01*
X85538095Y-69281009D02*
X85442857Y-69328628D01*
X85442857Y-69328628D02*
X85061905Y-69328628D01*
X86490476Y-69138152D02*
X86490476Y-69804819D01*
X86252381Y-68757200D02*
X86014286Y-69471485D01*
X86014286Y-69471485D02*
X86633333Y-69471485D01*
X84233333Y-33559580D02*
X84185714Y-33607200D01*
X84185714Y-33607200D02*
X84042857Y-33654819D01*
X84042857Y-33654819D02*
X83947619Y-33654819D01*
X83947619Y-33654819D02*
X83804762Y-33607200D01*
X83804762Y-33607200D02*
X83709524Y-33511961D01*
X83709524Y-33511961D02*
X83661905Y-33416723D01*
X83661905Y-33416723D02*
X83614286Y-33226247D01*
X83614286Y-33226247D02*
X83614286Y-33083390D01*
X83614286Y-33083390D02*
X83661905Y-32892914D01*
X83661905Y-32892914D02*
X83709524Y-32797676D01*
X83709524Y-32797676D02*
X83804762Y-32702438D01*
X83804762Y-32702438D02*
X83947619Y-32654819D01*
X83947619Y-32654819D02*
X84042857Y-32654819D01*
X84042857Y-32654819D02*
X84185714Y-32702438D01*
X84185714Y-32702438D02*
X84233333Y-32750057D01*
X85185714Y-33654819D02*
X84614286Y-33654819D01*
X84900000Y-33654819D02*
X84900000Y-32654819D01*
X84900000Y-32654819D02*
X84804762Y-32797676D01*
X84804762Y-32797676D02*
X84709524Y-32892914D01*
X84709524Y-32892914D02*
X84614286Y-32940533D01*
X60586666Y-33554819D02*
X60586666Y-34269104D01*
X60586666Y-34269104D02*
X60539047Y-34411961D01*
X60539047Y-34411961D02*
X60443809Y-34507200D01*
X60443809Y-34507200D02*
X60300952Y-34554819D01*
X60300952Y-34554819D02*
X60205714Y-34554819D01*
X61539047Y-33554819D02*
X61062857Y-33554819D01*
X61062857Y-33554819D02*
X61015238Y-34031009D01*
X61015238Y-34031009D02*
X61062857Y-33983390D01*
X61062857Y-33983390D02*
X61158095Y-33935771D01*
X61158095Y-33935771D02*
X61396190Y-33935771D01*
X61396190Y-33935771D02*
X61491428Y-33983390D01*
X61491428Y-33983390D02*
X61539047Y-34031009D01*
X61539047Y-34031009D02*
X61586666Y-34126247D01*
X61586666Y-34126247D02*
X61586666Y-34364342D01*
X61586666Y-34364342D02*
X61539047Y-34459580D01*
X61539047Y-34459580D02*
X61491428Y-34507200D01*
X61491428Y-34507200D02*
X61396190Y-34554819D01*
X61396190Y-34554819D02*
X61158095Y-34554819D01*
X61158095Y-34554819D02*
X61062857Y-34507200D01*
X61062857Y-34507200D02*
X61015238Y-34459580D01*
X66848571Y-38214700D02*
X67991429Y-38214700D01*
X67420000Y-38786128D02*
X67420000Y-37643271D01*
X53848571Y-38214700D02*
X54991429Y-38214700D01*
X63166666Y-60184819D02*
X63166666Y-60899104D01*
X63166666Y-60899104D02*
X63119047Y-61041961D01*
X63119047Y-61041961D02*
X63023809Y-61137200D01*
X63023809Y-61137200D02*
X62880952Y-61184819D01*
X62880952Y-61184819D02*
X62785714Y-61184819D01*
X64166666Y-61184819D02*
X63595238Y-61184819D01*
X63880952Y-61184819D02*
X63880952Y-60184819D01*
X63880952Y-60184819D02*
X63785714Y-60327676D01*
X63785714Y-60327676D02*
X63690476Y-60422914D01*
X63690476Y-60422914D02*
X63595238Y-60470533D01*
X60666666Y-31394819D02*
X60666666Y-32109104D01*
X60666666Y-32109104D02*
X60619047Y-32251961D01*
X60619047Y-32251961D02*
X60523809Y-32347200D01*
X60523809Y-32347200D02*
X60380952Y-32394819D01*
X60380952Y-32394819D02*
X60285714Y-32394819D01*
X61571428Y-31728152D02*
X61571428Y-32394819D01*
X61333333Y-31347200D02*
X61095238Y-32061485D01*
X61095238Y-32061485D02*
X61714285Y-32061485D01*
X53928571Y-28054700D02*
X55071429Y-28054700D01*
X54500000Y-28626128D02*
X54500000Y-27483271D01*
X66928571Y-28054700D02*
X68071429Y-28054700D01*
X76433333Y-56404819D02*
X76100000Y-55928628D01*
X75861905Y-56404819D02*
X75861905Y-55404819D01*
X75861905Y-55404819D02*
X76242857Y-55404819D01*
X76242857Y-55404819D02*
X76338095Y-55452438D01*
X76338095Y-55452438D02*
X76385714Y-55500057D01*
X76385714Y-55500057D02*
X76433333Y-55595295D01*
X76433333Y-55595295D02*
X76433333Y-55738152D01*
X76433333Y-55738152D02*
X76385714Y-55833390D01*
X76385714Y-55833390D02*
X76338095Y-55881009D01*
X76338095Y-55881009D02*
X76242857Y-55928628D01*
X76242857Y-55928628D02*
X75861905Y-55928628D01*
X76814286Y-55500057D02*
X76861905Y-55452438D01*
X76861905Y-55452438D02*
X76957143Y-55404819D01*
X76957143Y-55404819D02*
X77195238Y-55404819D01*
X77195238Y-55404819D02*
X77290476Y-55452438D01*
X77290476Y-55452438D02*
X77338095Y-55500057D01*
X77338095Y-55500057D02*
X77385714Y-55595295D01*
X77385714Y-55595295D02*
X77385714Y-55690533D01*
X77385714Y-55690533D02*
X77338095Y-55833390D01*
X77338095Y-55833390D02*
X76766667Y-56404819D01*
X76766667Y-56404819D02*
X77385714Y-56404819D01*
X80946666Y-60184819D02*
X80946666Y-60899104D01*
X80946666Y-60899104D02*
X80899047Y-61041961D01*
X80899047Y-61041961D02*
X80803809Y-61137200D01*
X80803809Y-61137200D02*
X80660952Y-61184819D01*
X80660952Y-61184819D02*
X80565714Y-61184819D01*
X81375238Y-60280057D02*
X81422857Y-60232438D01*
X81422857Y-60232438D02*
X81518095Y-60184819D01*
X81518095Y-60184819D02*
X81756190Y-60184819D01*
X81756190Y-60184819D02*
X81851428Y-60232438D01*
X81851428Y-60232438D02*
X81899047Y-60280057D01*
X81899047Y-60280057D02*
X81946666Y-60375295D01*
X81946666Y-60375295D02*
X81946666Y-60470533D01*
X81946666Y-60470533D02*
X81899047Y-60613390D01*
X81899047Y-60613390D02*
X81327619Y-61184819D01*
X81327619Y-61184819D02*
X81946666Y-61184819D01*
D12*
%TO.C,R6*%
X55372936Y-66735000D02*
X55827064Y-66735000D01*
X55372936Y-65265000D02*
X55827064Y-65265000D01*
%TO.C,Q2*%
X54040000Y-62600000D02*
X54040000Y-63250000D01*
X54040000Y-62600000D02*
X54040000Y-61950000D01*
X57160000Y-62600000D02*
X57160000Y-63250000D01*
X57160000Y-62600000D02*
X57160000Y-61950000D01*
X54090000Y-63762500D02*
X53760000Y-64002500D01*
X53760000Y-63522500D01*
X54090000Y-63762500D01*
G36*
X54090000Y-63762500D02*
G01*
X53760000Y-64002500D01*
X53760000Y-63522500D01*
X54090000Y-63762500D01*
G37*
%TO.C,R9*%
X81065000Y-57972936D02*
X81065000Y-58427064D01*
X82535000Y-57972936D02*
X82535000Y-58427064D01*
%TO.C,R8*%
X84585000Y-57937936D02*
X84585000Y-58392064D01*
X86055000Y-57937936D02*
X86055000Y-58392064D01*
%TO.C,R1*%
X85265000Y-77914564D02*
X85265000Y-77460436D01*
X86735000Y-77914564D02*
X86735000Y-77460436D01*
%TO.C,R5*%
X86027064Y-72865000D02*
X85572936Y-72865000D01*
X86027064Y-74335000D02*
X85572936Y-74335000D01*
%TO.C,J6*%
X52740000Y-57510000D02*
X52740000Y-58760000D01*
X52740000Y-58760000D02*
X53990000Y-58760000D01*
X52840000Y-56700000D02*
X52840000Y-57000000D01*
X52840000Y-57000000D02*
X53040000Y-57000000D01*
X52940000Y-56700000D02*
X52940000Y-57000000D01*
X53040000Y-50340000D02*
X53040000Y-58460000D01*
X53040000Y-55900000D02*
X53650000Y-55900000D01*
X53040000Y-56700000D02*
X52840000Y-56700000D01*
X53040000Y-58460000D02*
X57760000Y-58460000D01*
X53650000Y-50950000D02*
X53650000Y-52900000D01*
X53650000Y-52900000D02*
X53040000Y-52900000D01*
X53650000Y-55900000D02*
X53650000Y-57850000D01*
X53650000Y-57850000D02*
X57150000Y-57850000D01*
X54350000Y-50340000D02*
X54350000Y-50950000D01*
X54350000Y-58460000D02*
X54350000Y-57850000D01*
X55650000Y-50340000D02*
X55650000Y-50950000D01*
X55650000Y-58460000D02*
X55650000Y-57850000D01*
X56650000Y-53300000D02*
X57150000Y-53300000D01*
X56650000Y-53500000D02*
X56650000Y-53300000D01*
X56650000Y-55300000D02*
X57150000Y-55300000D01*
X56650000Y-55500000D02*
X56650000Y-55300000D01*
X57150000Y-50950000D02*
X53650000Y-50950000D01*
X57150000Y-53400000D02*
X56650000Y-53400000D01*
X57150000Y-53500000D02*
X56650000Y-53500000D01*
X57150000Y-55400000D02*
X56650000Y-55400000D01*
X57150000Y-55500000D02*
X56650000Y-55500000D01*
X57150000Y-57850000D02*
X57150000Y-50950000D01*
X57760000Y-50340000D02*
X53040000Y-50340000D01*
X57760000Y-58460000D02*
X57760000Y-50340000D01*
%TO.C,R3*%
X76372936Y-59065000D02*
X76827064Y-59065000D01*
X76372936Y-60535000D02*
X76827064Y-60535000D01*
%TO.C,J3*%
X76190000Y-30650000D02*
X76190000Y-25230000D01*
X84910000Y-25230000D02*
X76190000Y-25230000D01*
X84910000Y-30650000D02*
X76190000Y-30650000D01*
X86610000Y-26530000D02*
X84910000Y-25230000D01*
X86610000Y-29350000D02*
X84910000Y-30650000D01*
X86610000Y-29350000D02*
X86610000Y-26530000D01*
%TO.C,U1*%
X62390000Y-46750000D02*
X62390000Y-50510000D01*
X62390000Y-50510000D02*
X63650000Y-50510000D01*
X69210000Y-46750000D02*
X69210000Y-50510000D01*
X69210000Y-50510000D02*
X67950000Y-50510000D01*
X69440000Y-45710000D02*
X69110000Y-45470000D01*
X69440000Y-45230000D01*
X69440000Y-45710000D01*
G36*
X69440000Y-45710000D02*
G01*
X69110000Y-45470000D01*
X69440000Y-45230000D01*
X69440000Y-45710000D01*
G37*
%TO.C,Q1*%
X68635000Y-24925000D02*
X68635000Y-30815000D01*
X73775000Y-24925000D02*
X73775000Y-30815000D01*
X73130000Y-24295000D02*
X72890000Y-23965000D01*
X73370000Y-23965000D01*
X73130000Y-24295000D01*
G36*
X73130000Y-24295000D02*
G01*
X72890000Y-23965000D01*
X73370000Y-23965000D01*
X73130000Y-24295000D01*
G37*
%TO.C,C2*%
X67138748Y-54065000D02*
X67661252Y-54065000D01*
X67138748Y-55535000D02*
X67661252Y-55535000D01*
%TO.C,C3*%
X76842500Y-36252500D02*
X77630000Y-36252500D01*
X77236250Y-35858750D02*
X77236250Y-36646250D01*
X77870000Y-35754437D02*
X77870000Y-37040000D01*
X77870000Y-35754437D02*
X78934437Y-34690000D01*
X77870000Y-40445563D02*
X77870000Y-39160000D01*
X77870000Y-40445563D02*
X78934437Y-41510000D01*
X78934437Y-34690000D02*
X84690000Y-34690000D01*
X78934437Y-41510000D02*
X84690000Y-41510000D01*
X84690000Y-34690000D02*
X84690000Y-37040000D01*
X84690000Y-41510000D02*
X84690000Y-39160000D01*
%TO.C,R4*%
X85572936Y-70265000D02*
X86027064Y-70265000D01*
X85572936Y-71735000D02*
X86027064Y-71735000D01*
%TO.C,C1*%
X80938748Y-32265000D02*
X81461252Y-32265000D01*
X80938748Y-33735000D02*
X81461252Y-33735000D01*
%TO.C,J5*%
X55710000Y-36690000D02*
X55710000Y-39510000D01*
X55710000Y-36690000D02*
X57410000Y-35390000D01*
X55710000Y-39510000D02*
X57410000Y-40810000D01*
X57410000Y-35390000D02*
X66130000Y-35390000D01*
X57410000Y-40810000D02*
X66130000Y-40810000D01*
X66130000Y-35390000D02*
X66130000Y-40810000D01*
%TO.C,J1*%
X62170000Y-64770000D02*
X62170000Y-80070000D01*
X62170000Y-64770000D02*
X64830000Y-64770000D01*
X62170000Y-80070000D02*
X64830000Y-80070000D01*
X63500000Y-62170000D02*
X64830000Y-62170000D01*
X64830000Y-62170000D02*
X64830000Y-63500000D01*
X64830000Y-64770000D02*
X64830000Y-80070000D01*
%TO.C,J4*%
X55790000Y-30650000D02*
X55790000Y-25230000D01*
X64510000Y-25230000D02*
X55790000Y-25230000D01*
X64510000Y-30650000D02*
X55790000Y-30650000D01*
X66210000Y-26530000D02*
X64510000Y-25230000D01*
X66210000Y-29350000D02*
X64510000Y-30650000D01*
X66210000Y-29350000D02*
X66210000Y-26530000D01*
%TO.C,R2*%
X76372936Y-56865000D02*
X76827064Y-56865000D01*
X76372936Y-58335000D02*
X76827064Y-58335000D01*
%TO.C,J2*%
X79950000Y-64770000D02*
X79950000Y-80070000D01*
X79950000Y-64770000D02*
X82610000Y-64770000D01*
X79950000Y-80070000D02*
X82610000Y-80070000D01*
X81280000Y-62170000D02*
X82610000Y-62170000D01*
X82610000Y-62170000D02*
X82610000Y-63500000D01*
X82610000Y-64770000D02*
X82610000Y-80070000D01*
%TD*%
%LPC*%
D13*
%TO.C,R6*%
X56512500Y-66000000D03*
X54687500Y-66000000D03*
%TD*%
D14*
%TO.C,Q2*%
X54650000Y-63537500D03*
X56550000Y-63537500D03*
X55600000Y-61662500D03*
%TD*%
D15*
%TO.C,R9*%
X81800000Y-57287500D03*
X81800000Y-59112500D03*
%TD*%
D16*
%TO.C,H4*%
X55000000Y-90000000D03*
D17*
X55000000Y-90000000D03*
%TD*%
D15*
%TO.C,R8*%
X85320000Y-57252500D03*
X85320000Y-59077500D03*
%TD*%
D18*
%TO.C,R1*%
X86000000Y-78600000D03*
X86000000Y-76775000D03*
%TD*%
D16*
%TO.C,H1*%
X55000000Y-20000000D03*
D17*
X55000000Y-20000000D03*
%TD*%
D19*
%TO.C,R5*%
X86712500Y-73600000D03*
X84887500Y-73600000D03*
%TD*%
D20*
%TO.C,J6*%
X54850000Y-56400000D03*
D21*
X54850000Y-54400000D03*
X54850000Y-52400000D03*
%TD*%
D13*
%TO.C,R3*%
X75687500Y-59800000D03*
X77512500Y-59800000D03*
%TD*%
D22*
%TO.C,J3*%
X83900000Y-27940000D03*
D23*
X78900000Y-27940000D03*
%TD*%
D16*
%TO.C,H3*%
X160000000Y-90000000D03*
D17*
X160000000Y-90000000D03*
%TD*%
D24*
%TO.C,SW1*%
X109760000Y-44150000D03*
D25*
X135160000Y-34260000D03*
%TD*%
D26*
%TO.C,U1*%
X68100000Y-45450000D03*
X65800000Y-45450000D03*
D27*
X65800000Y-51750000D03*
D26*
X63500000Y-45450000D03*
%TD*%
D28*
%TO.C,Q1*%
X73110000Y-25200000D03*
X71840000Y-25200000D03*
X70570000Y-25200000D03*
X69300000Y-25200000D03*
D29*
X71205000Y-28560000D03*
D30*
X73110000Y-30665000D03*
X71840000Y-30665000D03*
X70570000Y-30665000D03*
X69300000Y-30665000D03*
%TD*%
D16*
%TO.C,H2*%
X160000000Y-20000000D03*
D17*
X160000000Y-20000000D03*
%TD*%
D31*
%TO.C,C2*%
X66450000Y-54800000D03*
X68350000Y-54800000D03*
%TD*%
D32*
%TO.C,C3*%
X78580000Y-38100000D03*
X83980000Y-38100000D03*
%TD*%
D13*
%TO.C,R4*%
X84887500Y-71000000D03*
X86712500Y-71000000D03*
%TD*%
D31*
%TO.C,C1*%
X80250000Y-33000000D03*
X82150000Y-33000000D03*
%TD*%
D22*
%TO.C,J5*%
X58420000Y-38100000D03*
D33*
X63420000Y-38100000D03*
%TD*%
D34*
%TO.C,J1*%
X63500000Y-63500000D03*
D35*
X63500000Y-66040000D03*
X63500000Y-68580000D03*
X63500000Y-71120000D03*
X63500000Y-73660000D03*
X63500000Y-76200000D03*
X63500000Y-78740000D03*
%TD*%
D22*
%TO.C,J4*%
X63500000Y-27940000D03*
D33*
X58500000Y-27940000D03*
%TD*%
D13*
%TO.C,R2*%
X75687500Y-57600000D03*
X77512500Y-57600000D03*
%TD*%
D34*
%TO.C,J2*%
X81280000Y-63500000D03*
D35*
X81280000Y-66040000D03*
X81280000Y-68580000D03*
X81280000Y-71120000D03*
X81280000Y-73660000D03*
X81280000Y-76200000D03*
X81280000Y-78740000D03*
%TD*%
%LPD*%
M02*
