%TF.GenerationSoftware,KiCad,Pcbnew,8.0.4*%
%TF.CreationDate,2025-02-03T15:53:43-05:00*%
%TF.ProjectId,AerospaceBigButton,4165726f-7370-4616-9365-426967427574,rev?*%
%TF.SameCoordinates,Original*%
%TF.FileFunction,Copper,L1,Top*%
%TF.FilePolarity,Positive*%
%FSLAX46Y46*%
G04 Gerber Fmt 4.6, Leading zero omitted, Abs format (unit mm)*
G04 Created by KiCad (PCBNEW 8.0.4) date 2025-02-03 15:53:43*
%MOMM*%
%LPD*%
G01*
G04 APERTURE LIST*
G04 Aperture macros list*
%AMRoundRect*
0 Rectangle with rounded corners*
0 $1 Rounding radius*
0 $2 $3 $4 $5 $6 $7 $8 $9 X,Y pos of 4 corners*
0 Add a 4 corners polygon primitive as box body*
4,1,4,$2,$3,$4,$5,$6,$7,$8,$9,$2,$3,0*
0 Add four circle primitives for the rounded corners*
1,1,$1+$1,$2,$3*
1,1,$1+$1,$4,$5*
1,1,$1+$1,$6,$7*
1,1,$1+$1,$8,$9*
0 Add four rect primitives between the rounded corners*
20,1,$1+$1,$2,$3,$4,$5,0*
20,1,$1+$1,$4,$5,$6,$7,0*
20,1,$1+$1,$6,$7,$8,$9,0*
20,1,$1+$1,$8,$9,$2,$3,0*%
G04 Aperture macros list end*
%TA.AperFunction,SMDPad,CuDef*%
%ADD10RoundRect,0.250000X-0.262500X-0.450000X0.262500X-0.450000X0.262500X0.450000X-0.262500X0.450000X0*%
%TD*%
%TA.AperFunction,SMDPad,CuDef*%
%ADD11RoundRect,0.150000X0.150000X-0.587500X0.150000X0.587500X-0.150000X0.587500X-0.150000X-0.587500X0*%
%TD*%
%TA.AperFunction,SMDPad,CuDef*%
%ADD12RoundRect,0.250000X-0.450000X0.262500X-0.450000X-0.262500X0.450000X-0.262500X0.450000X0.262500X0*%
%TD*%
%TA.AperFunction,ComponentPad*%
%ADD13C,3.600000*%
%TD*%
%TA.AperFunction,ConnectorPad*%
%ADD14C,5.600000*%
%TD*%
%TA.AperFunction,SMDPad,CuDef*%
%ADD15RoundRect,0.250000X0.450000X-0.262500X0.450000X0.262500X-0.450000X0.262500X-0.450000X-0.262500X0*%
%TD*%
%TA.AperFunction,SMDPad,CuDef*%
%ADD16RoundRect,0.250000X0.262500X0.450000X-0.262500X0.450000X-0.262500X-0.450000X0.262500X-0.450000X0*%
%TD*%
%TA.AperFunction,ComponentPad*%
%ADD17RoundRect,0.250000X0.625000X-0.350000X0.625000X0.350000X-0.625000X0.350000X-0.625000X-0.350000X0*%
%TD*%
%TA.AperFunction,ComponentPad*%
%ADD18O,1.750000X1.200000*%
%TD*%
%TA.AperFunction,ComponentPad*%
%ADD19R,3.800000X3.800000*%
%TD*%
%TA.AperFunction,ComponentPad*%
%ADD20C,3.800000*%
%TD*%
%TA.AperFunction,ComponentPad*%
%ADD21O,7.800000X5.000000*%
%TD*%
%TA.AperFunction,ComponentPad*%
%ADD22O,9.400000X5.000000*%
%TD*%
%TA.AperFunction,SMDPad,CuDef*%
%ADD23RoundRect,0.375000X-0.375000X0.625000X-0.375000X-0.625000X0.375000X-0.625000X0.375000X0.625000X0*%
%TD*%
%TA.AperFunction,SMDPad,CuDef*%
%ADD24RoundRect,0.500000X-1.400000X0.500000X-1.400000X-0.500000X1.400000X-0.500000X1.400000X0.500000X0*%
%TD*%
%TA.AperFunction,SMDPad,CuDef*%
%ADD25R,0.610000X1.270000*%
%TD*%
%TA.AperFunction,SMDPad,CuDef*%
%ADD26R,3.910000X3.810000*%
%TD*%
%TA.AperFunction,SMDPad,CuDef*%
%ADD27R,0.610000X1.020000*%
%TD*%
%TA.AperFunction,SMDPad,CuDef*%
%ADD28RoundRect,0.250000X-0.250000X-0.475000X0.250000X-0.475000X0.250000X0.475000X-0.250000X0.475000X0*%
%TD*%
%TA.AperFunction,SMDPad,CuDef*%
%ADD29RoundRect,0.250000X-1.500000X-0.550000X1.500000X-0.550000X1.500000X0.550000X-1.500000X0.550000X0*%
%TD*%
%TA.AperFunction,ComponentPad*%
%ADD30C,4.000000*%
%TD*%
%TA.AperFunction,ComponentPad*%
%ADD31R,1.700000X1.700000*%
%TD*%
%TA.AperFunction,ComponentPad*%
%ADD32O,1.700000X1.700000*%
%TD*%
%TA.AperFunction,ViaPad*%
%ADD33C,0.600000*%
%TD*%
%TA.AperFunction,Conductor*%
%ADD34C,0.200000*%
%TD*%
%TA.AperFunction,Conductor*%
%ADD35C,0.400000*%
%TD*%
%TA.AperFunction,Conductor*%
%ADD36C,1.600000*%
%TD*%
G04 APERTURE END LIST*
D10*
%TO.P,R6,2*%
%TO.N,/ARMED*%
X56512500Y-66000000D03*
%TO.P,R6,1*%
%TO.N,Net-(Q2-B)*%
X54687500Y-66000000D03*
%TD*%
D11*
%TO.P,Q2,1,B*%
%TO.N,Net-(Q2-B)*%
X54650000Y-63537500D03*
%TO.P,Q2,2,E*%
%TO.N,Net-(J6-Pin_1)*%
X56550000Y-63537500D03*
%TO.P,Q2,3,C*%
%TO.N,+5V*%
X55600000Y-61662500D03*
%TD*%
D12*
%TO.P,R9,1*%
%TO.N,GND*%
X81800000Y-57287500D03*
%TO.P,R9,2*%
%TO.N,/VINSENSE*%
X81800000Y-59112500D03*
%TD*%
D13*
%TO.P,H4,1,1*%
%TO.N,GND*%
X55000000Y-90000000D03*
D14*
X55000000Y-90000000D03*
%TD*%
D12*
%TO.P,R8,1*%
%TO.N,VCC*%
X85320000Y-57252500D03*
%TO.P,R8,2*%
%TO.N,/VINSENSE*%
X85320000Y-59077500D03*
%TD*%
D15*
%TO.P,R1,1*%
%TO.N,+3V3*%
X86000000Y-78600000D03*
%TO.P,R1,2*%
%TO.N,/BIGSWITCH*%
X86000000Y-76775000D03*
%TD*%
D13*
%TO.P,H1,1,1*%
%TO.N,GND*%
X55000000Y-20000000D03*
D14*
X55000000Y-20000000D03*
%TD*%
D16*
%TO.P,R5,1*%
%TO.N,GND*%
X86712500Y-73600000D03*
%TO.P,R5,2*%
%TO.N,/FIRE*%
X84887500Y-73600000D03*
%TD*%
D17*
%TO.P,J6,1,Pin_1*%
%TO.N,Net-(J6-Pin_1)*%
X54850000Y-56400000D03*
D18*
%TO.P,J6,2,Pin_2*%
%TO.N,+5V*%
X54850000Y-54400000D03*
%TO.P,J6,3,Pin_3*%
%TO.N,GND*%
X54850000Y-52400000D03*
%TD*%
D10*
%TO.P,R3,1*%
%TO.N,GND*%
X75687500Y-59800000D03*
%TO.P,R3,2*%
%TO.N,/CONT*%
X77512500Y-59800000D03*
%TD*%
D19*
%TO.P,J3,1,Pin_1*%
%TO.N,GND*%
X83900000Y-27940000D03*
D20*
%TO.P,J3,2,Pin_2*%
%TO.N,VCC*%
X78900000Y-27940000D03*
%TD*%
D13*
%TO.P,H3,1,1*%
%TO.N,GND*%
X160000000Y-90000000D03*
D14*
X160000000Y-90000000D03*
%TD*%
D21*
%TO.P,SW1,1,A*%
%TO.N,/BIGSWITCH*%
X109760000Y-44150000D03*
D22*
%TO.P,SW1,2,B*%
%TO.N,GND*%
X135160000Y-34260000D03*
%TD*%
D23*
%TO.P,U1,1,GND*%
%TO.N,GND*%
X68100000Y-45450000D03*
%TO.P,U1,2,VO*%
%TO.N,+5V*%
X65800000Y-45450000D03*
D24*
X65800000Y-51750000D03*
D23*
%TO.P,U1,3,VI*%
%TO.N,VCC*%
X63500000Y-45450000D03*
%TD*%
D25*
%TO.P,Q1,1,S*%
%TO.N,GND*%
X73110000Y-25200000D03*
%TO.P,Q1,2,S*%
X71840000Y-25200000D03*
%TO.P,Q1,3,S*%
X70570000Y-25200000D03*
%TO.P,Q1,4,G*%
%TO.N,Net-(Q1-G)*%
X69300000Y-25200000D03*
D26*
%TO.P,Q1,5,D*%
%TO.N,Net-(J4-Pin_1)*%
X71205000Y-28560000D03*
D27*
X73110000Y-30665000D03*
X71840000Y-30665000D03*
X70570000Y-30665000D03*
X69300000Y-30665000D03*
%TD*%
D13*
%TO.P,H2,1,1*%
%TO.N,GND*%
X160000000Y-20000000D03*
D14*
X160000000Y-20000000D03*
%TD*%
D28*
%TO.P,C2,1*%
%TO.N,+5V*%
X66450000Y-54800000D03*
%TO.P,C2,2*%
%TO.N,GND*%
X68350000Y-54800000D03*
%TD*%
D29*
%TO.P,C3,1*%
%TO.N,VCC*%
X78580000Y-38100000D03*
%TO.P,C3,2*%
%TO.N,GND*%
X83980000Y-38100000D03*
%TD*%
D10*
%TO.P,R4,1*%
%TO.N,/FIRE*%
X84887500Y-71000000D03*
%TO.P,R4,2*%
%TO.N,Net-(Q1-G)*%
X86712500Y-71000000D03*
%TD*%
D28*
%TO.P,C1,1*%
%TO.N,VCC*%
X80250000Y-33000000D03*
%TO.P,C1,2*%
%TO.N,GND*%
X82150000Y-33000000D03*
%TD*%
D19*
%TO.P,J5,1,Pin_1*%
%TO.N,/PYRO*%
X58420000Y-38100000D03*
D30*
%TO.P,J5,2,Pin_2*%
%TO.N,VCC*%
X63420000Y-38100000D03*
%TD*%
D31*
%TO.P,J1,1,Pin_1*%
%TO.N,+5V*%
X63500000Y-63500000D03*
D32*
%TO.P,J1,2,Pin_2*%
%TO.N,GND*%
X63500000Y-66040000D03*
%TO.P,J1,3,Pin_3*%
%TO.N,+3V3*%
X63500000Y-68580000D03*
%TO.P,J1,4,Pin_4*%
%TO.N,unconnected-(J1-Pin_4-Pad4)*%
X63500000Y-71120000D03*
%TO.P,J1,5,Pin_5*%
%TO.N,unconnected-(J1-Pin_5-Pad5)*%
X63500000Y-73660000D03*
%TO.P,J1,6,Pin_6*%
%TO.N,unconnected-(J1-Pin_6-Pad6)*%
X63500000Y-76200000D03*
%TO.P,J1,7,Pin_7*%
%TO.N,unconnected-(J1-Pin_7-Pad7)*%
X63500000Y-78740000D03*
%TD*%
D19*
%TO.P,J4,1,Pin_1*%
%TO.N,Net-(J4-Pin_1)*%
X63500000Y-27940000D03*
D30*
%TO.P,J4,2,Pin_2*%
%TO.N,/PYRO*%
X58500000Y-27940000D03*
%TD*%
D10*
%TO.P,R2,1*%
%TO.N,Net-(J4-Pin_1)*%
X75687500Y-57600000D03*
%TO.P,R2,2*%
%TO.N,/CONT*%
X77512500Y-57600000D03*
%TD*%
D31*
%TO.P,J2,1,Pin_1*%
%TO.N,/VINSENSE*%
X81280000Y-63500000D03*
D32*
%TO.P,J2,2,Pin_2*%
%TO.N,/ARMED*%
X81280000Y-66040000D03*
%TO.P,J2,3,Pin_3*%
%TO.N,/CONT*%
X81280000Y-68580000D03*
%TO.P,J2,4,Pin_4*%
%TO.N,unconnected-(J2-Pin_4-Pad4)*%
X81280000Y-71120000D03*
%TO.P,J2,5,Pin_5*%
%TO.N,/FIRE*%
X81280000Y-73660000D03*
%TO.P,J2,6,Pin_6*%
%TO.N,/BIGSWITCH*%
X81280000Y-76200000D03*
%TO.P,J2,7,Pin_7*%
%TO.N,unconnected-(J2-Pin_7-Pad7)*%
X81280000Y-78740000D03*
%TD*%
D33*
%TO.N,/ARMED*%
X58400000Y-66000000D03*
%TO.N,GND*%
X152400000Y-50000000D03*
X52000000Y-38800000D03*
X119000000Y-89800000D03*
X86800000Y-20400000D03*
X64000000Y-19000000D03*
X61600000Y-58800000D03*
X71600000Y-87200000D03*
X72400000Y-57200000D03*
X110000000Y-74400000D03*
X159400000Y-27000000D03*
X66400000Y-22600000D03*
X79800000Y-49600000D03*
X115400000Y-65400000D03*
X50800000Y-47800000D03*
X69200000Y-20800000D03*
X115400000Y-19000000D03*
X53000000Y-31000000D03*
X59200000Y-69000000D03*
X125400000Y-77600000D03*
X51000000Y-66800000D03*
X86600000Y-32800000D03*
X91000000Y-41000000D03*
X142800000Y-74000000D03*
X122600000Y-34600000D03*
X69000000Y-81000000D03*
X85000000Y-23200000D03*
X92200000Y-84600000D03*
X60200000Y-89200000D03*
X76400000Y-23000000D03*
X73600000Y-68800000D03*
X98200000Y-19000000D03*
X148800000Y-26800000D03*
%TO.N,Net-(J4-Pin_1)*%
X75400000Y-43000000D03*
X67000000Y-24800000D03*
%TD*%
D34*
%TO.N,+3V3*%
X65440000Y-68640000D02*
X63500000Y-68640000D01*
X83000000Y-81600000D02*
X78400000Y-81600000D01*
X86000000Y-78600000D02*
X83000000Y-81600000D01*
X78400000Y-81600000D02*
X65440000Y-68640000D01*
%TO.N,Net-(J6-Pin_1)*%
X57800000Y-59350000D02*
X54850000Y-56400000D01*
X57800000Y-62300000D02*
X57800000Y-59350000D01*
X57787500Y-62300000D02*
X57800000Y-62300000D01*
X56550000Y-63537500D02*
X57787500Y-62300000D01*
D35*
%TO.N,+5V*%
X55037500Y-61662500D02*
X55600000Y-61662500D01*
X51700000Y-59400000D02*
X54000000Y-61700000D01*
X53000000Y-54400000D02*
X51700000Y-55700000D01*
X54000000Y-61700000D02*
X55000000Y-61700000D01*
X55000000Y-61700000D02*
X55037500Y-61662500D01*
X54850000Y-54400000D02*
X53000000Y-54400000D01*
X51700000Y-55700000D02*
X51700000Y-59400000D01*
X63150000Y-54400000D02*
X54850000Y-54400000D01*
X63500000Y-54050000D02*
X63150000Y-54400000D01*
D34*
%TO.N,/CONT*%
X77512500Y-64812500D02*
X81280000Y-68580000D01*
X77512500Y-59800000D02*
X77512500Y-64812500D01*
%TO.N,/ARMED*%
X56512500Y-66000000D02*
X58400000Y-66000000D01*
%TO.N,Net-(Q2-B)*%
X54687500Y-66000000D02*
X54687500Y-63575000D01*
X54687500Y-63575000D02*
X54650000Y-63537500D01*
%TO.N,Net-(Q1-G)*%
X69300000Y-22900000D02*
X69300000Y-25200000D01*
X84800000Y-21000000D02*
X71200000Y-21000000D01*
X71200000Y-21000000D02*
X69300000Y-22900000D01*
X88800000Y-68912500D02*
X88800000Y-25000000D01*
X88800000Y-25000000D02*
X84800000Y-21000000D01*
X86712500Y-71000000D02*
X88800000Y-68912500D01*
D36*
%TO.N,VCC*%
X63420000Y-38100000D02*
X63420000Y-45370000D01*
D34*
X85320000Y-45720000D02*
X79800000Y-40200000D01*
X85320000Y-57252500D02*
X85320000Y-45720000D01*
D36*
X63420000Y-45370000D02*
X63500000Y-45450000D01*
D34*
%TO.N,+5V*%
X66450000Y-52400000D02*
X65800000Y-51750000D01*
X65800000Y-45450000D02*
X65800000Y-51750000D01*
D35*
X65800000Y-51750000D02*
X63500000Y-54050000D01*
D34*
X66450000Y-54800000D02*
X66450000Y-52400000D01*
%TO.N,/BIGSWITCH*%
X108660000Y-56000000D02*
X108660000Y-41950000D01*
X87660000Y-77000000D02*
X86225000Y-77000000D01*
X85425000Y-76200000D02*
X81280000Y-76200000D01*
X86225000Y-77000000D02*
X86000000Y-76775000D01*
X108660000Y-56000000D02*
X87660000Y-77000000D01*
X86000000Y-76775000D02*
X85425000Y-76200000D01*
%TO.N,/FIRE*%
X84887500Y-73600000D02*
X84827500Y-73660000D01*
X84827500Y-73660000D02*
X81280000Y-73660000D01*
X84887500Y-73600000D02*
X84887500Y-71000000D01*
%TO.N,/VINSENSE*%
X85285000Y-59112500D02*
X85320000Y-59077500D01*
X81800000Y-59112500D02*
X85285000Y-59112500D01*
X85320000Y-59077500D02*
X85320000Y-59460000D01*
X85320000Y-59460000D02*
X81280000Y-63500000D01*
%TO.N,Net-(J4-Pin_1)*%
X75400000Y-45000000D02*
X75400000Y-43000000D01*
X67000000Y-24800000D02*
X67000000Y-26200000D01*
X75687500Y-45287500D02*
X75400000Y-45000000D01*
X75687500Y-57600000D02*
X75687500Y-45287500D01*
%TO.N,/CONT*%
X77512500Y-60672500D02*
X77512500Y-57600000D01*
D35*
%TO.N,+5V*%
X63500000Y-54050000D02*
X63500000Y-63560000D01*
%TD*%
%TA.AperFunction,Conductor*%
%TO.N,/PYRO*%
G36*
X60777358Y-25421674D02*
G01*
X60799032Y-25474000D01*
X60799026Y-25474961D01*
X60600990Y-40723717D01*
X60578638Y-40775757D01*
X60526035Y-40796750D01*
X60523782Y-40796686D01*
X56070786Y-40603077D01*
X56019451Y-40579151D01*
X56000000Y-40529147D01*
X56000000Y-25474000D01*
X56021674Y-25421674D01*
X56074000Y-25400000D01*
X60725032Y-25400000D01*
X60777358Y-25421674D01*
G37*
%TD.AperFunction*%
%TD*%
%TA.AperFunction,Conductor*%
%TO.N,VCC*%
G36*
X81225240Y-24598947D02*
G01*
X81277256Y-24621356D01*
X81298191Y-24673982D01*
X81298176Y-24674744D01*
X80901787Y-40926706D01*
X80878843Y-40978488D01*
X80826694Y-40998894D01*
X61044962Y-40700677D01*
X60992968Y-40678216D01*
X60979890Y-40659781D01*
X60907605Y-40515211D01*
X60899799Y-40482993D01*
X60856953Y-36841008D01*
X60856953Y-36839338D01*
X60918928Y-32067268D01*
X60941280Y-32015230D01*
X60990695Y-31994264D01*
X74100000Y-31600000D01*
X74103848Y-31326758D01*
X74104047Y-31322515D01*
X74103991Y-31319591D01*
X74103984Y-31317115D01*
X74198957Y-24573990D01*
X74221366Y-24521977D01*
X74273991Y-24501042D01*
X81225240Y-24598947D01*
G37*
%TD.AperFunction*%
%TD*%
%TA.AperFunction,Conductor*%
%TO.N,Net-(J4-Pin_1)*%
G36*
X66814244Y-25521674D02*
G01*
X66822134Y-25530988D01*
X67117579Y-25944611D01*
X67300000Y-26200000D01*
X73727410Y-26200000D01*
X73779736Y-26221674D01*
X73801396Y-26272577D01*
X73898582Y-31326284D01*
X73877918Y-31379017D01*
X73826290Y-31401688D01*
X61000419Y-31695409D01*
X60947611Y-31674938D01*
X60924744Y-31623122D01*
X60924731Y-31620512D01*
X60998425Y-25946052D01*
X60998456Y-25944769D01*
X60998995Y-25929144D01*
X61020623Y-25879376D01*
X61378326Y-25521674D01*
X61430652Y-25500000D01*
X66761918Y-25500000D01*
X66814244Y-25521674D01*
G37*
%TD.AperFunction*%
%TD*%
%TA.AperFunction,Conductor*%
%TO.N,GND*%
G36*
X164007826Y-15172174D02*
G01*
X164029500Y-15224500D01*
X164029500Y-95015500D01*
X164007826Y-95067826D01*
X163955500Y-95089500D01*
X50224500Y-95089500D01*
X50172174Y-95067826D01*
X50150500Y-95015500D01*
X50150500Y-78740000D01*
X62444417Y-78740000D01*
X62464700Y-78945935D01*
X62465084Y-78947201D01*
X62503967Y-79075383D01*
X62524769Y-79143956D01*
X62546521Y-79184650D01*
X62622315Y-79326450D01*
X62753590Y-79486410D01*
X62913550Y-79617685D01*
X63096046Y-79715232D01*
X63294066Y-79775300D01*
X63500000Y-79795583D01*
X63705934Y-79775300D01*
X63903954Y-79715232D01*
X64086450Y-79617685D01*
X64246410Y-79486410D01*
X64377685Y-79326450D01*
X64475232Y-79143954D01*
X64535300Y-78945934D01*
X64555583Y-78740000D01*
X64535300Y-78534066D01*
X64475232Y-78336046D01*
X64377685Y-78153550D01*
X64246410Y-77993590D01*
X64174660Y-77934707D01*
X64086450Y-77862315D01*
X63903956Y-77764769D01*
X63903955Y-77764768D01*
X63903954Y-77764768D01*
X63792158Y-77730855D01*
X63705935Y-77704700D01*
X63500000Y-77684417D01*
X63294064Y-77704700D01*
X63096043Y-77764769D01*
X62913549Y-77862315D01*
X62753590Y-77993589D01*
X62753589Y-77993590D01*
X62622315Y-78153549D01*
X62524769Y-78336043D01*
X62464700Y-78534064D01*
X62444417Y-78740000D01*
X50150500Y-78740000D01*
X50150500Y-76200000D01*
X62444417Y-76200000D01*
X62464700Y-76405934D01*
X62524768Y-76603954D01*
X62622315Y-76786450D01*
X62753590Y-76946410D01*
X62913550Y-77077685D01*
X63096046Y-77175232D01*
X63294066Y-77235300D01*
X63500000Y-77255583D01*
X63705934Y-77235300D01*
X63903954Y-77175232D01*
X64086450Y-77077685D01*
X64246410Y-76946410D01*
X64377685Y-76786450D01*
X64475232Y-76603954D01*
X64535300Y-76405934D01*
X64555583Y-76200000D01*
X64535300Y-75994066D01*
X64475232Y-75796046D01*
X64377685Y-75613550D01*
X64246410Y-75453590D01*
X64086450Y-75322315D01*
X63903954Y-75224768D01*
X63792158Y-75190855D01*
X63705935Y-75164700D01*
X63500000Y-75144417D01*
X63294064Y-75164700D01*
X63096043Y-75224769D01*
X62913549Y-75322315D01*
X62753590Y-75453589D01*
X62753589Y-75453590D01*
X62622315Y-75613549D01*
X62524769Y-75796043D01*
X62464700Y-75994064D01*
X62464700Y-75994066D01*
X62444417Y-76200000D01*
X50150500Y-76200000D01*
X50150500Y-73660000D01*
X62444417Y-73660000D01*
X62464700Y-73865934D01*
X62524768Y-74063954D01*
X62622315Y-74246450D01*
X62753590Y-74406410D01*
X62913550Y-74537685D01*
X63096046Y-74635232D01*
X63294066Y-74695300D01*
X63500000Y-74715583D01*
X63705934Y-74695300D01*
X63903954Y-74635232D01*
X64086450Y-74537685D01*
X64246410Y-74406410D01*
X64377685Y-74246450D01*
X64475232Y-74063954D01*
X64535300Y-73865934D01*
X64555583Y-73660000D01*
X64535300Y-73454066D01*
X64475232Y-73256046D01*
X64377685Y-73073550D01*
X64246410Y-72913590D01*
X64086450Y-72782315D01*
X63936855Y-72702354D01*
X63903956Y-72684769D01*
X63903955Y-72684768D01*
X63903954Y-72684768D01*
X63734964Y-72633506D01*
X63705935Y-72624700D01*
X63500000Y-72604417D01*
X63294064Y-72624700D01*
X63096043Y-72684769D01*
X62913549Y-72782315D01*
X62753590Y-72913589D01*
X62753589Y-72913590D01*
X62622315Y-73073549D01*
X62524769Y-73256043D01*
X62464700Y-73454064D01*
X62464700Y-73454066D01*
X62444417Y-73660000D01*
X50150500Y-73660000D01*
X50150500Y-71120000D01*
X62444417Y-71120000D01*
X62464700Y-71325934D01*
X62524768Y-71523954D01*
X62622315Y-71706450D01*
X62753590Y-71866410D01*
X62913550Y-71997685D01*
X63096046Y-72095232D01*
X63294066Y-72155300D01*
X63500000Y-72175583D01*
X63705934Y-72155300D01*
X63903954Y-72095232D01*
X64086450Y-71997685D01*
X64246410Y-71866410D01*
X64377685Y-71706450D01*
X64475232Y-71523954D01*
X64535300Y-71325934D01*
X64555583Y-71120000D01*
X64535300Y-70914066D01*
X64475232Y-70716046D01*
X64377685Y-70533550D01*
X64246410Y-70373590D01*
X64201968Y-70337118D01*
X64086450Y-70242315D01*
X63903956Y-70144769D01*
X63903955Y-70144768D01*
X63903954Y-70144768D01*
X63792158Y-70110855D01*
X63705935Y-70084700D01*
X63500000Y-70064417D01*
X63294064Y-70084700D01*
X63096043Y-70144769D01*
X62913549Y-70242315D01*
X62753590Y-70373589D01*
X62753589Y-70373590D01*
X62622315Y-70533549D01*
X62524769Y-70716043D01*
X62464700Y-70914064D01*
X62464700Y-70914066D01*
X62444417Y-71120000D01*
X50150500Y-71120000D01*
X50150500Y-68580000D01*
X62444417Y-68580000D01*
X62464700Y-68785935D01*
X62471910Y-68809702D01*
X62524089Y-68981717D01*
X62524769Y-68983956D01*
X62548573Y-69028489D01*
X62622315Y-69166450D01*
X62753590Y-69326410D01*
X62913550Y-69457685D01*
X63096046Y-69555232D01*
X63294066Y-69615300D01*
X63500000Y-69635583D01*
X63705934Y-69615300D01*
X63903954Y-69555232D01*
X64086450Y-69457685D01*
X64246410Y-69326410D01*
X64377685Y-69166450D01*
X64475232Y-68983954D01*
X64475232Y-68983953D01*
X64476946Y-68980747D01*
X64478761Y-68981717D01*
X64514385Y-68946122D01*
X64542677Y-68940500D01*
X65284877Y-68940500D01*
X65337203Y-68962174D01*
X78215489Y-81840460D01*
X78284012Y-81880022D01*
X78360438Y-81900500D01*
X78360440Y-81900500D01*
X83039564Y-81900500D01*
X83039564Y-81900499D01*
X83115989Y-81880021D01*
X83184511Y-81840460D01*
X83240460Y-81784511D01*
X85690297Y-79334674D01*
X85742623Y-79313000D01*
X86504258Y-79313000D01*
X86504266Y-79313000D01*
X86534699Y-79310146D01*
X86662882Y-79265293D01*
X86772150Y-79184650D01*
X86852793Y-79075382D01*
X86897646Y-78947199D01*
X86900500Y-78916766D01*
X86900500Y-78283234D01*
X86897646Y-78252801D01*
X86852793Y-78124618D01*
X86852792Y-78124616D01*
X86772153Y-78015353D01*
X86772146Y-78015346D01*
X86662883Y-77934707D01*
X86662881Y-77934706D01*
X86534704Y-77889855D01*
X86534705Y-77889855D01*
X86534700Y-77889854D01*
X86534699Y-77889854D01*
X86504266Y-77887000D01*
X85495734Y-77887000D01*
X85465301Y-77889854D01*
X85465299Y-77889854D01*
X85465295Y-77889855D01*
X85337118Y-77934706D01*
X85337116Y-77934707D01*
X85227853Y-78015346D01*
X85227846Y-78015353D01*
X85147207Y-78124616D01*
X85147206Y-78124618D01*
X85102355Y-78252795D01*
X85102354Y-78252799D01*
X85102354Y-78252801D01*
X85099500Y-78283234D01*
X85099500Y-78916766D01*
X85101719Y-78940436D01*
X85102354Y-78947201D01*
X85102355Y-78947204D01*
X85119521Y-78996263D01*
X85116344Y-79052811D01*
X85101999Y-79073028D01*
X82897203Y-81277826D01*
X82844877Y-81299500D01*
X78555123Y-81299500D01*
X78502797Y-81277826D01*
X75964971Y-78740000D01*
X80224417Y-78740000D01*
X80244700Y-78945935D01*
X80245084Y-78947201D01*
X80283967Y-79075383D01*
X80304769Y-79143956D01*
X80326521Y-79184650D01*
X80402315Y-79326450D01*
X80533590Y-79486410D01*
X80693550Y-79617685D01*
X80876046Y-79715232D01*
X81074066Y-79775300D01*
X81280000Y-79795583D01*
X81485934Y-79775300D01*
X81683954Y-79715232D01*
X81866450Y-79617685D01*
X82026410Y-79486410D01*
X82157685Y-79326450D01*
X82255232Y-79143954D01*
X82315300Y-78945934D01*
X82335583Y-78740000D01*
X82315300Y-78534066D01*
X82255232Y-78336046D01*
X82157685Y-78153550D01*
X82026410Y-77993590D01*
X81954660Y-77934707D01*
X81866450Y-77862315D01*
X81683956Y-77764769D01*
X81683955Y-77764768D01*
X81683954Y-77764768D01*
X81572158Y-77730855D01*
X81485935Y-77704700D01*
X81280000Y-77684417D01*
X81074064Y-77704700D01*
X80876043Y-77764769D01*
X80693549Y-77862315D01*
X80533590Y-77993589D01*
X80533589Y-77993590D01*
X80402315Y-78153549D01*
X80304769Y-78336043D01*
X80244700Y-78534064D01*
X80224417Y-78740000D01*
X75964971Y-78740000D01*
X73424971Y-76200000D01*
X80224417Y-76200000D01*
X80244700Y-76405934D01*
X80304768Y-76603954D01*
X80402315Y-76786450D01*
X80533590Y-76946410D01*
X80693550Y-77077685D01*
X80876046Y-77175232D01*
X81074066Y-77235300D01*
X81280000Y-77255583D01*
X81485934Y-77235300D01*
X81683954Y-77175232D01*
X81866450Y-77077685D01*
X82026410Y-76946410D01*
X82157685Y-76786450D01*
X82255232Y-76603954D01*
X82270683Y-76553017D01*
X82306612Y-76509238D01*
X82341496Y-76500500D01*
X85025500Y-76500500D01*
X85077826Y-76522174D01*
X85099500Y-76574500D01*
X85099500Y-77091766D01*
X85102354Y-77122199D01*
X85102354Y-77122201D01*
X85102355Y-77122204D01*
X85147206Y-77250381D01*
X85147207Y-77250383D01*
X85227846Y-77359646D01*
X85227853Y-77359653D01*
X85337116Y-77440292D01*
X85337118Y-77440293D01*
X85465295Y-77485144D01*
X85465301Y-77485146D01*
X85495734Y-77488000D01*
X85495741Y-77488000D01*
X86504258Y-77488000D01*
X86504266Y-77488000D01*
X86534699Y-77485146D01*
X86662882Y-77440293D01*
X86772150Y-77359650D01*
X86793621Y-77330556D01*
X86842132Y-77301327D01*
X86853161Y-77300500D01*
X87699564Y-77300500D01*
X87699564Y-77300499D01*
X87775989Y-77280021D01*
X87844511Y-77240460D01*
X87900460Y-77184511D01*
X108900460Y-56184511D01*
X108937717Y-56119979D01*
X108937718Y-56119979D01*
X108937719Y-56119974D01*
X108940021Y-56115989D01*
X108960499Y-56039564D01*
X108960500Y-56039564D01*
X108960500Y-54999993D01*
X117844496Y-54999993D01*
X117844496Y-55000006D01*
X117864502Y-55534716D01*
X117864503Y-55534727D01*
X117924416Y-56066465D01*
X117924417Y-56066475D01*
X118023897Y-56592243D01*
X118023902Y-56592264D01*
X118162393Y-57109118D01*
X118320325Y-57560460D01*
X118339129Y-57614199D01*
X118553114Y-58104657D01*
X118803152Y-58577752D01*
X119087845Y-59030839D01*
X119405602Y-59461384D01*
X119754644Y-59866979D01*
X120133021Y-60245356D01*
X120538616Y-60594398D01*
X120969161Y-60912155D01*
X121422239Y-61196842D01*
X121422239Y-61196843D01*
X121422245Y-61196846D01*
X121422248Y-61196848D01*
X121895343Y-61446886D01*
X122385801Y-61660871D01*
X122795721Y-61804308D01*
X122890881Y-61837606D01*
X123407735Y-61976097D01*
X123407744Y-61976099D01*
X123407751Y-61976101D01*
X123933527Y-62075583D01*
X124465269Y-62135496D01*
X124465274Y-62135496D01*
X124465283Y-62135497D01*
X124999993Y-62155504D01*
X125000000Y-62155504D01*
X125000007Y-62155504D01*
X125534716Y-62135497D01*
X125534724Y-62135496D01*
X125534731Y-62135496D01*
X126066473Y-62075583D01*
X126592249Y-61976101D01*
X127109122Y-61837605D01*
X127614199Y-61660871D01*
X128104657Y-61446886D01*
X128577752Y-61196848D01*
X129030839Y-60912155D01*
X129461384Y-60594398D01*
X129866979Y-60245356D01*
X130245356Y-59866979D01*
X130594398Y-59461384D01*
X130912155Y-59030839D01*
X131196848Y-58577752D01*
X131446886Y-58104657D01*
X131660871Y-57614199D01*
X131837605Y-57109122D01*
X131976101Y-56592249D01*
X132075583Y-56066473D01*
X132135496Y-55534731D01*
X132135886Y-55524324D01*
X132155504Y-55000006D01*
X132155504Y-54999993D01*
X132135497Y-54465283D01*
X132135496Y-54465272D01*
X132135496Y-54465269D01*
X132075583Y-53933527D01*
X131976101Y-53407751D01*
X131853580Y-52950499D01*
X131837606Y-52890881D01*
X131714690Y-52539607D01*
X131660871Y-52385801D01*
X131446886Y-51895343D01*
X131196848Y-51422248D01*
X130912155Y-50969161D01*
X130594398Y-50538616D01*
X130245356Y-50133021D01*
X129866979Y-49754644D01*
X129461384Y-49405602D01*
X129030839Y-49087845D01*
X128577760Y-48803157D01*
X128577760Y-48803156D01*
X128461425Y-48741671D01*
X128104657Y-48553114D01*
X127614199Y-48339129D01*
X127433184Y-48275789D01*
X127109118Y-48162393D01*
X126592264Y-48023902D01*
X126592243Y-48023897D01*
X126066475Y-47924417D01*
X126066465Y-47924416D01*
X125534727Y-47864503D01*
X125534716Y-47864502D01*
X125000007Y-47844496D01*
X124999993Y-47844496D01*
X124465283Y-47864502D01*
X124465272Y-47864503D01*
X123933534Y-47924416D01*
X123933524Y-47924417D01*
X123407756Y-48023897D01*
X123407735Y-48023902D01*
X122890881Y-48162393D01*
X122385803Y-48339128D01*
X121895349Y-48553111D01*
X121422239Y-48803156D01*
X121422239Y-48803157D01*
X120969158Y-49087847D01*
X120969156Y-49087848D01*
X120538609Y-49405607D01*
X120133019Y-49754645D01*
X119754645Y-50133019D01*
X119405607Y-50538609D01*
X119087848Y-50969156D01*
X119087847Y-50969158D01*
X118803157Y-51422239D01*
X118803156Y-51422239D01*
X118553111Y-51895349D01*
X118339128Y-52385803D01*
X118162393Y-52890881D01*
X118023902Y-53407735D01*
X118023897Y-53407756D01*
X117924417Y-53933524D01*
X117924416Y-53933534D01*
X117864503Y-54465272D01*
X117864502Y-54465283D01*
X117844496Y-54999993D01*
X108960500Y-54999993D01*
X108960500Y-46924500D01*
X108982174Y-46872174D01*
X109034500Y-46850500D01*
X111311653Y-46850500D01*
X111311657Y-46850500D01*
X111613063Y-46816540D01*
X111908772Y-46749046D01*
X112195065Y-46648868D01*
X112468341Y-46517265D01*
X112725164Y-46355892D01*
X112962304Y-46166779D01*
X113176779Y-45952304D01*
X113365892Y-45715164D01*
X113527265Y-45458341D01*
X113658868Y-45185065D01*
X113759046Y-44898772D01*
X113826540Y-44603063D01*
X113860500Y-44301657D01*
X113860500Y-43998343D01*
X113826540Y-43696937D01*
X113764809Y-43426476D01*
X113759047Y-43401232D01*
X113759043Y-43401220D01*
X113755084Y-43389907D01*
X113658868Y-43114935D01*
X113527265Y-42841659D01*
X113365892Y-42584836D01*
X113176779Y-42347696D01*
X112962304Y-42133221D01*
X112725164Y-41944108D01*
X112468341Y-41782735D01*
X112195065Y-41651132D01*
X112195061Y-41651130D01*
X111908779Y-41550956D01*
X111908767Y-41550952D01*
X111613063Y-41483460D01*
X111613066Y-41483460D01*
X111483889Y-41468905D01*
X111311657Y-41449500D01*
X108208343Y-41449500D01*
X108036111Y-41468905D01*
X107906934Y-41483460D01*
X107611232Y-41550952D01*
X107611220Y-41550956D01*
X107324938Y-41651130D01*
X107051660Y-41782734D01*
X106794835Y-41944108D01*
X106557696Y-42133220D01*
X106343220Y-42347696D01*
X106154108Y-42584835D01*
X105992734Y-42841660D01*
X105861130Y-43114938D01*
X105760956Y-43401220D01*
X105760952Y-43401232D01*
X105693460Y-43696934D01*
X105693460Y-43696937D01*
X105659500Y-43998343D01*
X105659500Y-44301657D01*
X105672220Y-44414549D01*
X105693460Y-44603065D01*
X105760952Y-44898767D01*
X105760956Y-44898779D01*
X105861130Y-45185061D01*
X105861132Y-45185065D01*
X105992735Y-45458341D01*
X106049410Y-45548538D01*
X106154108Y-45715164D01*
X106239942Y-45822797D01*
X106343221Y-45952304D01*
X106557696Y-46166779D01*
X106794836Y-46355892D01*
X107051659Y-46517265D01*
X107324935Y-46648868D01*
X107611228Y-46749046D01*
X107906937Y-46816540D01*
X108208343Y-46850500D01*
X108285500Y-46850500D01*
X108337826Y-46872174D01*
X108359500Y-46924500D01*
X108359500Y-55844877D01*
X108337826Y-55897203D01*
X87557203Y-76677826D01*
X87504877Y-76699500D01*
X86974500Y-76699500D01*
X86922174Y-76677826D01*
X86900500Y-76625500D01*
X86900500Y-76458240D01*
X86900500Y-76458234D01*
X86897646Y-76427801D01*
X86889994Y-76405934D01*
X86852793Y-76299618D01*
X86852792Y-76299616D01*
X86772153Y-76190353D01*
X86772146Y-76190346D01*
X86662883Y-76109707D01*
X86662881Y-76109706D01*
X86534704Y-76064855D01*
X86534705Y-76064855D01*
X86534700Y-76064854D01*
X86534699Y-76064854D01*
X86504266Y-76062000D01*
X86504260Y-76062000D01*
X85742623Y-76062000D01*
X85690297Y-76040326D01*
X85609511Y-75959540D01*
X85540990Y-75919979D01*
X85540985Y-75919977D01*
X85464564Y-75899500D01*
X85464562Y-75899500D01*
X82341496Y-75899500D01*
X82289170Y-75877826D01*
X82270683Y-75846983D01*
X82255232Y-75796046D01*
X82157685Y-75613550D01*
X82026410Y-75453590D01*
X81866450Y-75322315D01*
X81683954Y-75224768D01*
X81572158Y-75190855D01*
X81485935Y-75164700D01*
X81280000Y-75144417D01*
X81074064Y-75164700D01*
X80876043Y-75224769D01*
X80693549Y-75322315D01*
X80533590Y-75453589D01*
X80533589Y-75453590D01*
X80402315Y-75613549D01*
X80304769Y-75796043D01*
X80244700Y-75994064D01*
X80244700Y-75994066D01*
X80224417Y-76200000D01*
X73424971Y-76200000D01*
X70884971Y-73660000D01*
X80224417Y-73660000D01*
X80244700Y-73865934D01*
X80304768Y-74063954D01*
X80402315Y-74246450D01*
X80533590Y-74406410D01*
X80693550Y-74537685D01*
X80876046Y-74635232D01*
X81074066Y-74695300D01*
X81280000Y-74715583D01*
X81485934Y-74695300D01*
X81683954Y-74635232D01*
X81866450Y-74537685D01*
X82026410Y-74406410D01*
X82157685Y-74246450D01*
X82255232Y-74063954D01*
X82270683Y-74013017D01*
X82306612Y-73969238D01*
X82341496Y-73960500D01*
X84100500Y-73960500D01*
X84152826Y-73982174D01*
X84174500Y-74034500D01*
X84174500Y-74104266D01*
X84177354Y-74134699D01*
X84177354Y-74134701D01*
X84177355Y-74134704D01*
X84222206Y-74262881D01*
X84222207Y-74262883D01*
X84302846Y-74372146D01*
X84302853Y-74372153D01*
X84412116Y-74452792D01*
X84412118Y-74452793D01*
X84540295Y-74497644D01*
X84540301Y-74497646D01*
X84570734Y-74500500D01*
X84570741Y-74500500D01*
X85204258Y-74500500D01*
X85204266Y-74500500D01*
X85234699Y-74497646D01*
X85362882Y-74452793D01*
X85472150Y-74372150D01*
X85552793Y-74262882D01*
X85597646Y-74134699D01*
X85600500Y-74104266D01*
X85600500Y-73095734D01*
X85597646Y-73065301D01*
X85552793Y-72937118D01*
X85535428Y-72913589D01*
X85472153Y-72827853D01*
X85472146Y-72827846D01*
X85362883Y-72747207D01*
X85362881Y-72747206D01*
X85237559Y-72703353D01*
X85195328Y-72665613D01*
X85188000Y-72633506D01*
X85188000Y-71966493D01*
X85209674Y-71914167D01*
X85237559Y-71896646D01*
X85323970Y-71866409D01*
X85362882Y-71852793D01*
X85472150Y-71772150D01*
X85552793Y-71662882D01*
X85597646Y-71534699D01*
X85600500Y-71504266D01*
X85600500Y-70495734D01*
X85597646Y-70465301D01*
X85552793Y-70337118D01*
X85482826Y-70242315D01*
X85472153Y-70227853D01*
X85472146Y-70227846D01*
X85362883Y-70147207D01*
X85362881Y-70147206D01*
X85234704Y-70102355D01*
X85234705Y-70102355D01*
X85234700Y-70102354D01*
X85234699Y-70102354D01*
X85204266Y-70099500D01*
X84570734Y-70099500D01*
X84540301Y-70102354D01*
X84540299Y-70102354D01*
X84540295Y-70102355D01*
X84412118Y-70147206D01*
X84412116Y-70147207D01*
X84302853Y-70227846D01*
X84302846Y-70227853D01*
X84222207Y-70337116D01*
X84222206Y-70337118D01*
X84177355Y-70465295D01*
X84177354Y-70465299D01*
X84177354Y-70465301D01*
X84174500Y-70495734D01*
X84174500Y-71504266D01*
X84177354Y-71534699D01*
X84177354Y-71534701D01*
X84177355Y-71534704D01*
X84222206Y-71662881D01*
X84222207Y-71662883D01*
X84302846Y-71772146D01*
X84302853Y-71772153D01*
X84412116Y-71852792D01*
X84412118Y-71852793D01*
X84537441Y-71896646D01*
X84579672Y-71934386D01*
X84587000Y-71966493D01*
X84587000Y-72633506D01*
X84565326Y-72685832D01*
X84537441Y-72703353D01*
X84412118Y-72747206D01*
X84412116Y-72747207D01*
X84302853Y-72827846D01*
X84302846Y-72827853D01*
X84222207Y-72937116D01*
X84222206Y-72937118D01*
X84177355Y-73065295D01*
X84177354Y-73065299D01*
X84177354Y-73065301D01*
X84174500Y-73095734D01*
X84174500Y-73095740D01*
X84174500Y-73285500D01*
X84152826Y-73337826D01*
X84100500Y-73359500D01*
X82341496Y-73359500D01*
X82289170Y-73337826D01*
X82270683Y-73306983D01*
X82255232Y-73256046D01*
X82157685Y-73073550D01*
X82026410Y-72913590D01*
X81866450Y-72782315D01*
X81716855Y-72702354D01*
X81683956Y-72684769D01*
X81683955Y-72684768D01*
X81683954Y-72684768D01*
X81514964Y-72633506D01*
X81485935Y-72624700D01*
X81280000Y-72604417D01*
X81074064Y-72624700D01*
X80876043Y-72684769D01*
X80693549Y-72782315D01*
X80533590Y-72913589D01*
X80533589Y-72913590D01*
X80402315Y-73073549D01*
X80304769Y-73256043D01*
X80244700Y-73454064D01*
X80244700Y-73454066D01*
X80224417Y-73660000D01*
X70884971Y-73660000D01*
X68344971Y-71120000D01*
X80224417Y-71120000D01*
X80244700Y-71325934D01*
X80304768Y-71523954D01*
X80402315Y-71706450D01*
X80533590Y-71866410D01*
X80693550Y-71997685D01*
X80876046Y-72095232D01*
X81074066Y-72155300D01*
X81280000Y-72175583D01*
X81485934Y-72155300D01*
X81683954Y-72095232D01*
X81866450Y-71997685D01*
X82026410Y-71866410D01*
X82157685Y-71706450D01*
X82255232Y-71523954D01*
X82315300Y-71325934D01*
X82335583Y-71120000D01*
X82315300Y-70914066D01*
X82255232Y-70716046D01*
X82157685Y-70533550D01*
X82026410Y-70373590D01*
X81981968Y-70337118D01*
X81866450Y-70242315D01*
X81683956Y-70144769D01*
X81683955Y-70144768D01*
X81683954Y-70144768D01*
X81572158Y-70110855D01*
X81485935Y-70084700D01*
X81280000Y-70064417D01*
X81074064Y-70084700D01*
X80876043Y-70144769D01*
X80693549Y-70242315D01*
X80533590Y-70373589D01*
X80533589Y-70373590D01*
X80402315Y-70533549D01*
X80304769Y-70716043D01*
X80244700Y-70914064D01*
X80244700Y-70914066D01*
X80224417Y-71120000D01*
X68344971Y-71120000D01*
X65624511Y-68399540D01*
X65583170Y-68375672D01*
X65555990Y-68359979D01*
X65555985Y-68359977D01*
X65479564Y-68339500D01*
X65479562Y-68339500D01*
X64579697Y-68339500D01*
X64527371Y-68317826D01*
X64508884Y-68286983D01*
X64475232Y-68176046D01*
X64377685Y-67993550D01*
X64246410Y-67833590D01*
X64086450Y-67702315D01*
X63903954Y-67604768D01*
X63792158Y-67570855D01*
X63705935Y-67544700D01*
X63500000Y-67524417D01*
X63294064Y-67544700D01*
X63096043Y-67604769D01*
X62913549Y-67702315D01*
X62753590Y-67833589D01*
X62753589Y-67833590D01*
X62622315Y-67993549D01*
X62524769Y-68176043D01*
X62464700Y-68374064D01*
X62444417Y-68580000D01*
X50150500Y-68580000D01*
X50150500Y-65495734D01*
X53974500Y-65495734D01*
X53974500Y-66504266D01*
X53977354Y-66534699D01*
X53977354Y-66534701D01*
X53977355Y-66534704D01*
X54022206Y-66662881D01*
X54022207Y-66662883D01*
X54102846Y-66772146D01*
X54102853Y-66772153D01*
X54212116Y-66852792D01*
X54212118Y-66852793D01*
X54340295Y-66897644D01*
X54340301Y-66897646D01*
X54370734Y-66900500D01*
X54370741Y-66900500D01*
X55004258Y-66900500D01*
X55004266Y-66900500D01*
X55034699Y-66897646D01*
X55162882Y-66852793D01*
X55272150Y-66772150D01*
X55352793Y-66662882D01*
X55397646Y-66534699D01*
X55400500Y-66504266D01*
X55400500Y-65495734D01*
X55799500Y-65495734D01*
X55799500Y-66504266D01*
X55802354Y-66534699D01*
X55802354Y-66534701D01*
X55802355Y-66534704D01*
X55847206Y-66662881D01*
X55847207Y-66662883D01*
X55927846Y-66772146D01*
X55927853Y-66772153D01*
X56037116Y-66852792D01*
X56037118Y-66852793D01*
X56165295Y-66897644D01*
X56165301Y-66897646D01*
X56195734Y-66900500D01*
X56195741Y-66900500D01*
X56829258Y-66900500D01*
X56829266Y-66900500D01*
X56859699Y-66897646D01*
X56987882Y-66852793D01*
X57097150Y-66772150D01*
X57177793Y-66662882D01*
X57222646Y-66534699D01*
X57225500Y-66504266D01*
X57225500Y-66374500D01*
X57247174Y-66322174D01*
X57299500Y-66300500D01*
X57964333Y-66300500D01*
X58016659Y-66322174D01*
X58020259Y-66326041D01*
X58068868Y-66382139D01*
X58068871Y-66382142D01*
X58068872Y-66382143D01*
X58189947Y-66459953D01*
X58296403Y-66491211D01*
X58328035Y-66500499D01*
X58328037Y-66500500D01*
X58328039Y-66500500D01*
X58471963Y-66500500D01*
X58471964Y-66500499D01*
X58610053Y-66459953D01*
X58731128Y-66382143D01*
X58825377Y-66273373D01*
X58885165Y-66142457D01*
X58905647Y-66000000D01*
X58885165Y-65857543D01*
X58825377Y-65726627D01*
X58731128Y-65617857D01*
X58674182Y-65581260D01*
X58610054Y-65540047D01*
X58610050Y-65540046D01*
X58471964Y-65499500D01*
X58471961Y-65499500D01*
X58328039Y-65499500D01*
X58328036Y-65499500D01*
X58189949Y-65540046D01*
X58189945Y-65540047D01*
X58068871Y-65617857D01*
X58068868Y-65617860D01*
X58020259Y-65673959D01*
X57969612Y-65699311D01*
X57964333Y-65699500D01*
X57299500Y-65699500D01*
X57247174Y-65677826D01*
X57225500Y-65625500D01*
X57225500Y-65495740D01*
X57225500Y-65495734D01*
X57222646Y-65465301D01*
X57177793Y-65337118D01*
X57177792Y-65337116D01*
X57097153Y-65227853D01*
X57097146Y-65227846D01*
X56987883Y-65147207D01*
X56987881Y-65147206D01*
X56859704Y-65102355D01*
X56859705Y-65102355D01*
X56859700Y-65102354D01*
X56859699Y-65102354D01*
X56829266Y-65099500D01*
X56195734Y-65099500D01*
X56165301Y-65102354D01*
X56165299Y-65102354D01*
X56165295Y-65102355D01*
X56037118Y-65147206D01*
X56037116Y-65147207D01*
X55927853Y-65227846D01*
X55927846Y-65227853D01*
X55847207Y-65337116D01*
X55847206Y-65337118D01*
X55802355Y-65465295D01*
X55802354Y-65465299D01*
X55802354Y-65465301D01*
X55799500Y-65495734D01*
X55400500Y-65495734D01*
X55397646Y-65465301D01*
X55352793Y-65337118D01*
X55352792Y-65337116D01*
X55272153Y-65227853D01*
X55272146Y-65227846D01*
X55162883Y-65147207D01*
X55162881Y-65147206D01*
X55037559Y-65103353D01*
X54995328Y-65065613D01*
X54988000Y-65033506D01*
X54988000Y-64463333D01*
X55009674Y-64411007D01*
X55089198Y-64331483D01*
X55140573Y-64226393D01*
X55150500Y-64158260D01*
X55150500Y-62916740D01*
X55140573Y-62848607D01*
X55089198Y-62743517D01*
X55006483Y-62660802D01*
X55006482Y-62660801D01*
X54901394Y-62609427D01*
X54833264Y-62599500D01*
X54833260Y-62599500D01*
X54466740Y-62599500D01*
X54466735Y-62599500D01*
X54398606Y-62609427D01*
X54398605Y-62609427D01*
X54293517Y-62660801D01*
X54210801Y-62743517D01*
X54159427Y-62848605D01*
X54159427Y-62848606D01*
X54149500Y-62916735D01*
X54149500Y-64158264D01*
X54159427Y-64226393D01*
X54159427Y-64226394D01*
X54210801Y-64331482D01*
X54293517Y-64414198D01*
X54293519Y-64414199D01*
X54345499Y-64439610D01*
X54382990Y-64482062D01*
X54387000Y-64506091D01*
X54387000Y-65033506D01*
X54365326Y-65085832D01*
X54337441Y-65103353D01*
X54212118Y-65147206D01*
X54212116Y-65147207D01*
X54102853Y-65227846D01*
X54102846Y-65227853D01*
X54022207Y-65337116D01*
X54022206Y-65337118D01*
X53977355Y-65465295D01*
X53977354Y-65465299D01*
X53977354Y-65465301D01*
X53974500Y-65495734D01*
X50150500Y-65495734D01*
X50150500Y-55647273D01*
X51299500Y-55647273D01*
X51299500Y-59347273D01*
X51299500Y-59452727D01*
X51313539Y-59505123D01*
X51326793Y-59554588D01*
X51326795Y-59554592D01*
X51379517Y-59645909D01*
X51379518Y-59645910D01*
X51379520Y-59645913D01*
X53754087Y-62020480D01*
X53845412Y-62073207D01*
X53947273Y-62100500D01*
X53947274Y-62100500D01*
X55025500Y-62100500D01*
X55077826Y-62122174D01*
X55099500Y-62174500D01*
X55099500Y-62283264D01*
X55109427Y-62351393D01*
X55109427Y-62351394D01*
X55160801Y-62456482D01*
X55160802Y-62456483D01*
X55243517Y-62539198D01*
X55348607Y-62590573D01*
X55416740Y-62600500D01*
X55416746Y-62600500D01*
X55783254Y-62600500D01*
X55783260Y-62600500D01*
X55851393Y-62590573D01*
X55956483Y-62539198D01*
X56039198Y-62456483D01*
X56090573Y-62351393D01*
X56100500Y-62283260D01*
X56100500Y-61041740D01*
X56090573Y-60973607D01*
X56039198Y-60868517D01*
X55956483Y-60785802D01*
X55956482Y-60785801D01*
X55851394Y-60734427D01*
X55783264Y-60724500D01*
X55783260Y-60724500D01*
X55416740Y-60724500D01*
X55416735Y-60724500D01*
X55348606Y-60734427D01*
X55348605Y-60734427D01*
X55243517Y-60785801D01*
X55160801Y-60868517D01*
X55109427Y-60973605D01*
X55109427Y-60973606D01*
X55099500Y-61041735D01*
X55099500Y-61188000D01*
X55077826Y-61240326D01*
X55025500Y-61262000D01*
X54984773Y-61262000D01*
X54933842Y-61275646D01*
X54882911Y-61289293D01*
X54882905Y-61289296D01*
X54882402Y-61289587D01*
X54881839Y-61289737D01*
X54878427Y-61291151D01*
X54878240Y-61290701D01*
X54845404Y-61299500D01*
X54196545Y-61299500D01*
X54144219Y-61277826D01*
X52122174Y-59255781D01*
X52100500Y-59203455D01*
X52100500Y-55995734D01*
X53774500Y-55995734D01*
X53774500Y-56804266D01*
X53777354Y-56834699D01*
X53777354Y-56834701D01*
X53777355Y-56834704D01*
X53822206Y-56962881D01*
X53822207Y-56962883D01*
X53902846Y-57072146D01*
X53902853Y-57072153D01*
X54012116Y-57152792D01*
X54012118Y-57152793D01*
X54140295Y-57197644D01*
X54140301Y-57197646D01*
X54170734Y-57200500D01*
X55194877Y-57200500D01*
X55247203Y-57222174D01*
X57477826Y-59452797D01*
X57499500Y-59505123D01*
X57499500Y-62132377D01*
X57477826Y-62184703D01*
X57006369Y-62656159D01*
X56954043Y-62677833D01*
X56911044Y-62664059D01*
X56906485Y-62660804D01*
X56906483Y-62660802D01*
X56843992Y-62630252D01*
X56801394Y-62609427D01*
X56733264Y-62599500D01*
X56733260Y-62599500D01*
X56366740Y-62599500D01*
X56366735Y-62599500D01*
X56298606Y-62609427D01*
X56298605Y-62609427D01*
X56193517Y-62660801D01*
X56110801Y-62743517D01*
X56059427Y-62848605D01*
X56059427Y-62848606D01*
X56049500Y-62916735D01*
X56049500Y-64158264D01*
X56059427Y-64226393D01*
X56059427Y-64226394D01*
X56110801Y-64331482D01*
X56110802Y-64331483D01*
X56193517Y-64414198D01*
X56298607Y-64465573D01*
X56366740Y-64475500D01*
X56366746Y-64475500D01*
X56733254Y-64475500D01*
X56733260Y-64475500D01*
X56801393Y-64465573D01*
X56906483Y-64414198D01*
X56989198Y-64331483D01*
X57040573Y-64226393D01*
X57050500Y-64158260D01*
X57050500Y-63492622D01*
X57072173Y-63440297D01*
X57948049Y-62564420D01*
X57963370Y-62552665D01*
X57984511Y-62540460D01*
X58040460Y-62484511D01*
X58080021Y-62415989D01*
X58100499Y-62339564D01*
X58100500Y-62339564D01*
X58100500Y-59310436D01*
X58100499Y-59310435D01*
X58096561Y-59295740D01*
X58080021Y-59234011D01*
X58040460Y-59165489D01*
X57984511Y-59109540D01*
X55900318Y-57025347D01*
X55878644Y-56973021D01*
X55882797Y-56948580D01*
X55886809Y-56937116D01*
X55922646Y-56834699D01*
X55925500Y-56804266D01*
X55925500Y-55995734D01*
X55922646Y-55965301D01*
X55877793Y-55837118D01*
X55877792Y-55837116D01*
X55797153Y-55727853D01*
X55797146Y-55727846D01*
X55687883Y-55647207D01*
X55687881Y-55647206D01*
X55559704Y-55602355D01*
X55559705Y-55602355D01*
X55559700Y-55602354D01*
X55559699Y-55602354D01*
X55529266Y-55599500D01*
X54170734Y-55599500D01*
X54140301Y-55602354D01*
X54140299Y-55602354D01*
X54140295Y-55602355D01*
X54012118Y-55647206D01*
X54012116Y-55647207D01*
X53902853Y-55727846D01*
X53902846Y-55727853D01*
X53822207Y-55837116D01*
X53822206Y-55837118D01*
X53777355Y-55965295D01*
X53777354Y-55965299D01*
X53777354Y-55965301D01*
X53774500Y-55995734D01*
X52100500Y-55995734D01*
X52100500Y-55896544D01*
X52122174Y-55844218D01*
X53144218Y-54822174D01*
X53196544Y-54800500D01*
X53840298Y-54800500D01*
X53892624Y-54822174D01*
X53901827Y-54833388D01*
X53953211Y-54910289D01*
X54064711Y-55021789D01*
X54195821Y-55109394D01*
X54195826Y-55109396D01*
X54195825Y-55109396D01*
X54341498Y-55169735D01*
X54341503Y-55169737D01*
X54496158Y-55200500D01*
X54496160Y-55200500D01*
X55203840Y-55200500D01*
X55203842Y-55200500D01*
X55358497Y-55169737D01*
X55504179Y-55109394D01*
X55635289Y-55021789D01*
X55746789Y-54910289D01*
X55798173Y-54833388D01*
X55845266Y-54801922D01*
X55859702Y-54800500D01*
X63025500Y-54800500D01*
X63077826Y-54822174D01*
X63099500Y-54874500D01*
X63099500Y-62375500D01*
X63077826Y-62427826D01*
X63025500Y-62449500D01*
X62630252Y-62449500D01*
X62601010Y-62455316D01*
X62571767Y-62461133D01*
X62505449Y-62505447D01*
X62505447Y-62505449D01*
X62461133Y-62571767D01*
X62449500Y-62630253D01*
X62449500Y-64369746D01*
X62461133Y-64428232D01*
X62490608Y-64472343D01*
X62505448Y-64494552D01*
X62549560Y-64524027D01*
X62571767Y-64538866D01*
X62571768Y-64538866D01*
X62571769Y-64538867D01*
X62630252Y-64550500D01*
X62630254Y-64550500D01*
X64369746Y-64550500D01*
X64369748Y-64550500D01*
X64428231Y-64538867D01*
X64494552Y-64494552D01*
X64538867Y-64428231D01*
X64550500Y-64369748D01*
X64550500Y-62630252D01*
X64538867Y-62571769D01*
X64494552Y-62505448D01*
X64463218Y-62484511D01*
X64428232Y-62461133D01*
X64428233Y-62461133D01*
X64398989Y-62455316D01*
X64369748Y-62449500D01*
X64369746Y-62449500D01*
X63974500Y-62449500D01*
X63922174Y-62427826D01*
X63900500Y-62375500D01*
X63900500Y-54246545D01*
X63922174Y-54194219D01*
X65144219Y-52972174D01*
X65196545Y-52950500D01*
X66075500Y-52950500D01*
X66127826Y-52972174D01*
X66149500Y-53024500D01*
X66149500Y-53812880D01*
X66127826Y-53865206D01*
X66099941Y-53882727D01*
X65987118Y-53922206D01*
X65987116Y-53922207D01*
X65877853Y-54002846D01*
X65877846Y-54002853D01*
X65797207Y-54112116D01*
X65797206Y-54112118D01*
X65752355Y-54240295D01*
X65752354Y-54240299D01*
X65752354Y-54240301D01*
X65749500Y-54270734D01*
X65749500Y-55329266D01*
X65752354Y-55359699D01*
X65752354Y-55359701D01*
X65752355Y-55359704D01*
X65797206Y-55487881D01*
X65797207Y-55487883D01*
X65877846Y-55597146D01*
X65877853Y-55597153D01*
X65987116Y-55677792D01*
X65987118Y-55677793D01*
X66115295Y-55722644D01*
X66115301Y-55722646D01*
X66145734Y-55725500D01*
X66145741Y-55725500D01*
X66754258Y-55725500D01*
X66754266Y-55725500D01*
X66784699Y-55722646D01*
X66912882Y-55677793D01*
X67022150Y-55597150D01*
X67102793Y-55487882D01*
X67147646Y-55359699D01*
X67150500Y-55329266D01*
X67150500Y-54270734D01*
X67147646Y-54240301D01*
X67102793Y-54112118D01*
X67039821Y-54026793D01*
X67022153Y-54002853D01*
X67022146Y-54002846D01*
X66912883Y-53922207D01*
X66912881Y-53922206D01*
X66800059Y-53882727D01*
X66757828Y-53844987D01*
X66750500Y-53812880D01*
X66750500Y-53024500D01*
X66772174Y-52972174D01*
X66824500Y-52950500D01*
X67256614Y-52950500D01*
X67256616Y-52950500D01*
X67327196Y-52944086D01*
X67489606Y-52893478D01*
X67635185Y-52805472D01*
X67755472Y-52685185D01*
X67843478Y-52539606D01*
X67894086Y-52377196D01*
X67900500Y-52306616D01*
X67900500Y-51193384D01*
X67894086Y-51122804D01*
X67843478Y-50960394D01*
X67755472Y-50814815D01*
X67635185Y-50694528D01*
X67489606Y-50606522D01*
X67327196Y-50555914D01*
X67327193Y-50555913D01*
X67327191Y-50555913D01*
X67256623Y-50549500D01*
X67256616Y-50549500D01*
X66174500Y-50549500D01*
X66122174Y-50527826D01*
X66100500Y-50475500D01*
X66100500Y-46724500D01*
X66122174Y-46672174D01*
X66174500Y-46650500D01*
X66212718Y-46650500D01*
X66212720Y-46650500D01*
X66325236Y-46635687D01*
X66465233Y-46577698D01*
X66585451Y-46485451D01*
X66677698Y-46365233D01*
X66735687Y-46225236D01*
X66750500Y-46112720D01*
X66750500Y-44787280D01*
X66735687Y-44674764D01*
X66677698Y-44534767D01*
X66585451Y-44414549D01*
X66465233Y-44322302D01*
X66415392Y-44301657D01*
X66325235Y-44264312D01*
X66238897Y-44252946D01*
X66212720Y-44249500D01*
X65387280Y-44249500D01*
X65361102Y-44252946D01*
X65274765Y-44264312D01*
X65274764Y-44264312D01*
X65134766Y-44322302D01*
X65014549Y-44414549D01*
X64922302Y-44534766D01*
X64864312Y-44674764D01*
X64864312Y-44674765D01*
X64849500Y-44787281D01*
X64849500Y-46112718D01*
X64864312Y-46225234D01*
X64864312Y-46225235D01*
X64918432Y-46355891D01*
X64922302Y-46365233D01*
X65014549Y-46485451D01*
X65134767Y-46577698D01*
X65274764Y-46635687D01*
X65387280Y-46650500D01*
X65425500Y-46650500D01*
X65477826Y-46672174D01*
X65499500Y-46724500D01*
X65499500Y-50475500D01*
X65477826Y-50527826D01*
X65425500Y-50549500D01*
X64343376Y-50549500D01*
X64272809Y-50555913D01*
X64272808Y-50555913D01*
X64272805Y-50555913D01*
X64272804Y-50555914D01*
X64110394Y-50606522D01*
X64110392Y-50606522D01*
X64110392Y-50606523D01*
X63964814Y-50694528D01*
X63844528Y-50814814D01*
X63756523Y-50960392D01*
X63756522Y-50960394D01*
X63725685Y-51059355D01*
X63705913Y-51122808D01*
X63705913Y-51122809D01*
X63699500Y-51193376D01*
X63699500Y-52306623D01*
X63705913Y-52377190D01*
X63705913Y-52377191D01*
X63705913Y-52377193D01*
X63705914Y-52377196D01*
X63756522Y-52539606D01*
X63844528Y-52685185D01*
X63964815Y-52805472D01*
X64016931Y-52836977D01*
X64050498Y-52882596D01*
X64041976Y-52938588D01*
X64030974Y-52952631D01*
X63183739Y-53799867D01*
X63183736Y-53799870D01*
X63179518Y-53804087D01*
X63179518Y-53804088D01*
X63093893Y-53889714D01*
X63005781Y-53977826D01*
X62953455Y-53999500D01*
X55859702Y-53999500D01*
X55807376Y-53977826D01*
X55798173Y-53966612D01*
X55746791Y-53889714D01*
X55746790Y-53889713D01*
X55746789Y-53889711D01*
X55635289Y-53778211D01*
X55504179Y-53690606D01*
X55504175Y-53690604D01*
X55504173Y-53690603D01*
X55504174Y-53690603D01*
X55358501Y-53630264D01*
X55358491Y-53630261D01*
X55254925Y-53609661D01*
X55203842Y-53599500D01*
X54496158Y-53599500D01*
X54452315Y-53608220D01*
X54341508Y-53630261D01*
X54341498Y-53630264D01*
X54195825Y-53690603D01*
X54064711Y-53778210D01*
X54064710Y-53778211D01*
X53953209Y-53889713D01*
X53953208Y-53889714D01*
X53901827Y-53966612D01*
X53854734Y-53998078D01*
X53840298Y-53999500D01*
X53057273Y-53999500D01*
X53057257Y-53999499D01*
X53052727Y-53999499D01*
X52947273Y-53999499D01*
X52947271Y-53999499D01*
X52845416Y-54026791D01*
X52845411Y-54026793D01*
X52754086Y-54079520D01*
X52679518Y-54154089D01*
X51379517Y-55454090D01*
X51326795Y-55545407D01*
X51326791Y-55545416D01*
X51311535Y-55602352D01*
X51311536Y-55602353D01*
X51299518Y-55647206D01*
X51299500Y-55647273D01*
X50150500Y-55647273D01*
X50150500Y-25474001D01*
X55794500Y-25474001D01*
X55794500Y-40529152D01*
X55808479Y-40603643D01*
X55808480Y-40603647D01*
X55827930Y-40653648D01*
X55860416Y-40709298D01*
X55860418Y-40709299D01*
X55860419Y-40709301D01*
X55932638Y-40765414D01*
X55983973Y-40789340D01*
X56061860Y-40808383D01*
X60514856Y-41001992D01*
X60517947Y-41002103D01*
X60520200Y-41002167D01*
X60602205Y-40987612D01*
X60654808Y-40966619D01*
X60713570Y-40930752D01*
X60767458Y-40856858D01*
X60767458Y-40856857D01*
X60769149Y-40854539D01*
X60817492Y-40825032D01*
X60872541Y-40838351D01*
X60872666Y-40838442D01*
X60888876Y-40850315D01*
X60911473Y-40866866D01*
X60963467Y-40889327D01*
X61041864Y-40906154D01*
X62346615Y-40925823D01*
X62398609Y-40948284D01*
X62419500Y-40999815D01*
X62419500Y-45468538D01*
X62457947Y-45661830D01*
X62457950Y-45661840D01*
X62480038Y-45715164D01*
X62533366Y-45843911D01*
X62533367Y-45843913D01*
X62533368Y-45843914D01*
X62537027Y-45849390D01*
X62549500Y-45890504D01*
X62549500Y-46112718D01*
X62564312Y-46225234D01*
X62564312Y-46225235D01*
X62618432Y-46355891D01*
X62622302Y-46365233D01*
X62714549Y-46485451D01*
X62834767Y-46577698D01*
X62974764Y-46635687D01*
X63087280Y-46650500D01*
X63087282Y-46650500D01*
X63912718Y-46650500D01*
X63912720Y-46650500D01*
X64025236Y-46635687D01*
X64165233Y-46577698D01*
X64285451Y-46485451D01*
X64377698Y-46365233D01*
X64435687Y-46225236D01*
X64450500Y-46112720D01*
X64450500Y-45784441D01*
X64456133Y-45756122D01*
X64462051Y-45741836D01*
X64500500Y-45548540D01*
X64500500Y-45351460D01*
X64462051Y-45158164D01*
X64456133Y-45143876D01*
X64450500Y-45115558D01*
X64450500Y-44787281D01*
X64435687Y-44674764D01*
X64426133Y-44651698D01*
X64420500Y-44623380D01*
X64420500Y-43000000D01*
X74894353Y-43000000D01*
X74914834Y-43142454D01*
X74974623Y-43273373D01*
X75068868Y-43382140D01*
X75072869Y-43385606D01*
X75070946Y-43387825D01*
X75097803Y-43426476D01*
X75099500Y-43442233D01*
X75099500Y-45039564D01*
X75119977Y-45115985D01*
X75119979Y-45115990D01*
X75152035Y-45171512D01*
X75159540Y-45184511D01*
X75365326Y-45390297D01*
X75387000Y-45442623D01*
X75387000Y-56633506D01*
X75365326Y-56685832D01*
X75337441Y-56703353D01*
X75212118Y-56747206D01*
X75212116Y-56747207D01*
X75102853Y-56827846D01*
X75102846Y-56827853D01*
X75022207Y-56937116D01*
X75022206Y-56937118D01*
X74977355Y-57065295D01*
X74977354Y-57065299D01*
X74977354Y-57065301D01*
X74974500Y-57095734D01*
X74974500Y-58104266D01*
X74977354Y-58134699D01*
X74977354Y-58134701D01*
X74977355Y-58134704D01*
X75022206Y-58262881D01*
X75022207Y-58262883D01*
X75102846Y-58372146D01*
X75102853Y-58372153D01*
X75212116Y-58452792D01*
X75212118Y-58452793D01*
X75340295Y-58497644D01*
X75340301Y-58497646D01*
X75370734Y-58500500D01*
X75370741Y-58500500D01*
X76004258Y-58500500D01*
X76004266Y-58500500D01*
X76034699Y-58497646D01*
X76162882Y-58452793D01*
X76272150Y-58372150D01*
X76352793Y-58262882D01*
X76397646Y-58134699D01*
X76400500Y-58104266D01*
X76400500Y-57095734D01*
X76799500Y-57095734D01*
X76799500Y-58104266D01*
X76802354Y-58134699D01*
X76802354Y-58134701D01*
X76802355Y-58134704D01*
X76847206Y-58262881D01*
X76847207Y-58262883D01*
X76927846Y-58372146D01*
X76927853Y-58372153D01*
X77037116Y-58452792D01*
X77037118Y-58452793D01*
X77162441Y-58496646D01*
X77204672Y-58534386D01*
X77212000Y-58566493D01*
X77212000Y-58833506D01*
X77190326Y-58885832D01*
X77162441Y-58903353D01*
X77037118Y-58947206D01*
X77037116Y-58947207D01*
X76927853Y-59027846D01*
X76927846Y-59027853D01*
X76847207Y-59137116D01*
X76847206Y-59137118D01*
X76802355Y-59265295D01*
X76802354Y-59265299D01*
X76802354Y-59265301D01*
X76799500Y-59295734D01*
X76799500Y-60304266D01*
X76802354Y-60334699D01*
X76802354Y-60334701D01*
X76802355Y-60334704D01*
X76847206Y-60462881D01*
X76847207Y-60462883D01*
X76927846Y-60572146D01*
X76927853Y-60572153D01*
X77037116Y-60652792D01*
X77037118Y-60652793D01*
X77162441Y-60696646D01*
X77204672Y-60734386D01*
X77212000Y-60766493D01*
X77212000Y-64852064D01*
X77232477Y-64928485D01*
X77232479Y-64928490D01*
X77264768Y-64984415D01*
X77264770Y-64984418D01*
X77272040Y-64997011D01*
X80316922Y-68041893D01*
X80338596Y-68094219D01*
X80329859Y-68129101D01*
X80304769Y-68176043D01*
X80244700Y-68374064D01*
X80224417Y-68580000D01*
X80244700Y-68785935D01*
X80251910Y-68809702D01*
X80304089Y-68981717D01*
X80304769Y-68983956D01*
X80328573Y-69028489D01*
X80402315Y-69166450D01*
X80533590Y-69326410D01*
X80693550Y-69457685D01*
X80876046Y-69555232D01*
X81074066Y-69615300D01*
X81280000Y-69635583D01*
X81485934Y-69615300D01*
X81683954Y-69555232D01*
X81866450Y-69457685D01*
X82026410Y-69326410D01*
X82157685Y-69166450D01*
X82255232Y-68983954D01*
X82315300Y-68785934D01*
X82335583Y-68580000D01*
X82315300Y-68374066D01*
X82255232Y-68176046D01*
X82157685Y-67993550D01*
X82026410Y-67833590D01*
X81866450Y-67702315D01*
X81683954Y-67604768D01*
X81572158Y-67570855D01*
X81485935Y-67544700D01*
X81280000Y-67524417D01*
X81074064Y-67544700D01*
X80876043Y-67604769D01*
X80829101Y-67629859D01*
X80772736Y-67635409D01*
X80741893Y-67616922D01*
X79164971Y-66040000D01*
X80224417Y-66040000D01*
X80244700Y-66245934D01*
X80286018Y-66382144D01*
X80304769Y-66443956D01*
X80402315Y-66626450D01*
X80521889Y-66772153D01*
X80533590Y-66786410D01*
X80693550Y-66917685D01*
X80876046Y-67015232D01*
X81074066Y-67075300D01*
X81280000Y-67095583D01*
X81485934Y-67075300D01*
X81683954Y-67015232D01*
X81866450Y-66917685D01*
X82026410Y-66786410D01*
X82157685Y-66626450D01*
X82255232Y-66443954D01*
X82315300Y-66245934D01*
X82335583Y-66040000D01*
X82315300Y-65834066D01*
X82255232Y-65636046D01*
X82157685Y-65453550D01*
X82026410Y-65293590D01*
X81866450Y-65162315D01*
X81754272Y-65102354D01*
X81683956Y-65064769D01*
X81683955Y-65064768D01*
X81683954Y-65064768D01*
X81572158Y-65030855D01*
X81485935Y-65004700D01*
X81280000Y-64984417D01*
X81074064Y-65004700D01*
X80876043Y-65064769D01*
X80693549Y-65162315D01*
X80533590Y-65293589D01*
X80533589Y-65293590D01*
X80402315Y-65453549D01*
X80304769Y-65636043D01*
X80244700Y-65834064D01*
X80244700Y-65834066D01*
X80224417Y-66040000D01*
X79164971Y-66040000D01*
X77834674Y-64709703D01*
X77813000Y-64657377D01*
X77813000Y-62630253D01*
X80229500Y-62630253D01*
X80229500Y-64369746D01*
X80241133Y-64428232D01*
X80270608Y-64472343D01*
X80285448Y-64494552D01*
X80329560Y-64524027D01*
X80351767Y-64538866D01*
X80351768Y-64538866D01*
X80351769Y-64538867D01*
X80410252Y-64550500D01*
X80410254Y-64550500D01*
X82149746Y-64550500D01*
X82149748Y-64550500D01*
X82208231Y-64538867D01*
X82274552Y-64494552D01*
X82318867Y-64428231D01*
X82330500Y-64369748D01*
X82330500Y-62905123D01*
X82352174Y-62852797D01*
X85392797Y-59812174D01*
X85445123Y-59790500D01*
X85824258Y-59790500D01*
X85824266Y-59790500D01*
X85854699Y-59787646D01*
X85982882Y-59742793D01*
X86092150Y-59662150D01*
X86172793Y-59552882D01*
X86217646Y-59424699D01*
X86220500Y-59394266D01*
X86220500Y-58760734D01*
X86217646Y-58730301D01*
X86172793Y-58602118D01*
X86172792Y-58602116D01*
X86092153Y-58492853D01*
X86092146Y-58492846D01*
X85982883Y-58412207D01*
X85982881Y-58412206D01*
X85854704Y-58367355D01*
X85854705Y-58367355D01*
X85854700Y-58367354D01*
X85854699Y-58367354D01*
X85824266Y-58364500D01*
X84815734Y-58364500D01*
X84785301Y-58367354D01*
X84785299Y-58367354D01*
X84785295Y-58367355D01*
X84657118Y-58412206D01*
X84657116Y-58412207D01*
X84547853Y-58492846D01*
X84547846Y-58492853D01*
X84467207Y-58602116D01*
X84467206Y-58602118D01*
X84422355Y-58730295D01*
X84422354Y-58730299D01*
X84422354Y-58730301D01*
X84420983Y-58744909D01*
X84394521Y-58794982D01*
X84347308Y-58812000D01*
X82766493Y-58812000D01*
X82714167Y-58790326D01*
X82696646Y-58762441D01*
X82652793Y-58637118D01*
X82652792Y-58637116D01*
X82572153Y-58527853D01*
X82572146Y-58527846D01*
X82462883Y-58447207D01*
X82462881Y-58447206D01*
X82334704Y-58402355D01*
X82334705Y-58402355D01*
X82334700Y-58402354D01*
X82334699Y-58402354D01*
X82304266Y-58399500D01*
X81295734Y-58399500D01*
X81265301Y-58402354D01*
X81265299Y-58402354D01*
X81265295Y-58402355D01*
X81137118Y-58447206D01*
X81137116Y-58447207D01*
X81027853Y-58527846D01*
X81027846Y-58527853D01*
X80947207Y-58637116D01*
X80947206Y-58637118D01*
X80902355Y-58765295D01*
X80902354Y-58765299D01*
X80902354Y-58765301D01*
X80899500Y-58795734D01*
X80899500Y-59429266D01*
X80902354Y-59459699D01*
X80902354Y-59459701D01*
X80902355Y-59459704D01*
X80947206Y-59587881D01*
X80947207Y-59587883D01*
X81027846Y-59697146D01*
X81027853Y-59697153D01*
X81137116Y-59777792D01*
X81137118Y-59777793D01*
X81265295Y-59822644D01*
X81265301Y-59822646D01*
X81295734Y-59825500D01*
X81295741Y-59825500D01*
X82304258Y-59825500D01*
X82304266Y-59825500D01*
X82334699Y-59822646D01*
X82462882Y-59777793D01*
X82572150Y-59697150D01*
X82652793Y-59587882D01*
X82681752Y-59505123D01*
X82696646Y-59462559D01*
X82734386Y-59420328D01*
X82766493Y-59413000D01*
X84365754Y-59413000D01*
X84418080Y-59434674D01*
X84435601Y-59462559D01*
X84467206Y-59552881D01*
X84467207Y-59552883D01*
X84547846Y-59662146D01*
X84547850Y-59662150D01*
X84562104Y-59672670D01*
X84591337Y-59721179D01*
X84577706Y-59776151D01*
X84570490Y-59784537D01*
X81927203Y-62427826D01*
X81874877Y-62449500D01*
X80410252Y-62449500D01*
X80381010Y-62455316D01*
X80351767Y-62461133D01*
X80285449Y-62505447D01*
X80285447Y-62505449D01*
X80241133Y-62571767D01*
X80229500Y-62630253D01*
X77813000Y-62630253D01*
X77813000Y-60766493D01*
X77834674Y-60714167D01*
X77862559Y-60696646D01*
X77948137Y-60666700D01*
X77987882Y-60652793D01*
X78097150Y-60572150D01*
X78177793Y-60462882D01*
X78222646Y-60334699D01*
X78225500Y-60304266D01*
X78225500Y-59295734D01*
X78222646Y-59265301D01*
X78211696Y-59234009D01*
X78177793Y-59137118D01*
X78177792Y-59137116D01*
X78097153Y-59027853D01*
X78097146Y-59027846D01*
X77987883Y-58947207D01*
X77987881Y-58947206D01*
X77862559Y-58903353D01*
X77820328Y-58865613D01*
X77813000Y-58833506D01*
X77813000Y-58566493D01*
X77834674Y-58514167D01*
X77862559Y-58496646D01*
X77948137Y-58466700D01*
X77987882Y-58452793D01*
X78097150Y-58372150D01*
X78177793Y-58262882D01*
X78222646Y-58134699D01*
X78225500Y-58104266D01*
X78225500Y-57095734D01*
X78222646Y-57065301D01*
X78177793Y-56937118D01*
X78176772Y-56935734D01*
X78097153Y-56827853D01*
X78097146Y-56827846D01*
X77987883Y-56747207D01*
X77987881Y-56747206D01*
X77859704Y-56702355D01*
X77859705Y-56702355D01*
X77859700Y-56702354D01*
X77859699Y-56702354D01*
X77829266Y-56699500D01*
X77195734Y-56699500D01*
X77165301Y-56702354D01*
X77165299Y-56702354D01*
X77165295Y-56702355D01*
X77037118Y-56747206D01*
X77037116Y-56747207D01*
X76927853Y-56827846D01*
X76927846Y-56827853D01*
X76847207Y-56937116D01*
X76847206Y-56937118D01*
X76802355Y-57065295D01*
X76802354Y-57065299D01*
X76802354Y-57065301D01*
X76799500Y-57095734D01*
X76400500Y-57095734D01*
X76397646Y-57065301D01*
X76352793Y-56937118D01*
X76351772Y-56935734D01*
X76272153Y-56827853D01*
X76272146Y-56827846D01*
X76162883Y-56747207D01*
X76162881Y-56747206D01*
X76037559Y-56703353D01*
X75995328Y-56665613D01*
X75988000Y-56633506D01*
X75988000Y-45247936D01*
X75987999Y-45247935D01*
X75967522Y-45171514D01*
X75967520Y-45171509D01*
X75951566Y-45143876D01*
X75927960Y-45102989D01*
X75872011Y-45047040D01*
X75722174Y-44897203D01*
X75700500Y-44844877D01*
X75700500Y-43442233D01*
X75722174Y-43389907D01*
X75727288Y-43385787D01*
X75727131Y-43385606D01*
X75731131Y-43382140D01*
X75758082Y-43351035D01*
X75825377Y-43273373D01*
X75885165Y-43142457D01*
X75905647Y-43000000D01*
X75885165Y-42857543D01*
X75825377Y-42726627D01*
X75731128Y-42617857D01*
X75674182Y-42581260D01*
X75610054Y-42540047D01*
X75610050Y-42540046D01*
X75471964Y-42499500D01*
X75471961Y-42499500D01*
X75328039Y-42499500D01*
X75328036Y-42499500D01*
X75189949Y-42540046D01*
X75189945Y-42540047D01*
X75068875Y-42617855D01*
X75068868Y-42617860D01*
X74974623Y-42726626D01*
X74914834Y-42857545D01*
X74894353Y-43000000D01*
X64420500Y-43000000D01*
X64420500Y-41032212D01*
X64442174Y-40979886D01*
X64494500Y-40958212D01*
X64495565Y-40958219D01*
X80342604Y-41197119D01*
X80393814Y-41218785D01*
X84997826Y-45822797D01*
X85019500Y-45875123D01*
X85019500Y-56465500D01*
X84997826Y-56517826D01*
X84945500Y-56539500D01*
X84815734Y-56539500D01*
X84785301Y-56542354D01*
X84785299Y-56542354D01*
X84785295Y-56542355D01*
X84657118Y-56587206D01*
X84657116Y-56587207D01*
X84547853Y-56667846D01*
X84547846Y-56667853D01*
X84467207Y-56777116D01*
X84467206Y-56777118D01*
X84422355Y-56905295D01*
X84422354Y-56905299D01*
X84422354Y-56905301D01*
X84419500Y-56935734D01*
X84419500Y-57569266D01*
X84422354Y-57599699D01*
X84422354Y-57599701D01*
X84422355Y-57599704D01*
X84467206Y-57727881D01*
X84467207Y-57727883D01*
X84547846Y-57837146D01*
X84547853Y-57837153D01*
X84657116Y-57917792D01*
X84657118Y-57917793D01*
X84785295Y-57962644D01*
X84785301Y-57962646D01*
X84815734Y-57965500D01*
X84815741Y-57965500D01*
X85824258Y-57965500D01*
X85824266Y-57965500D01*
X85854699Y-57962646D01*
X85982882Y-57917793D01*
X86092150Y-57837150D01*
X86172793Y-57727882D01*
X86217646Y-57599699D01*
X86220500Y-57569266D01*
X86220500Y-56935734D01*
X86217646Y-56905301D01*
X86172793Y-56777118D01*
X86150718Y-56747207D01*
X86092153Y-56667853D01*
X86092146Y-56667846D01*
X85982883Y-56587207D01*
X85982881Y-56587206D01*
X85854704Y-56542355D01*
X85854705Y-56542355D01*
X85854700Y-56542354D01*
X85854699Y-56542354D01*
X85824266Y-56539500D01*
X85824260Y-56539500D01*
X85694500Y-56539500D01*
X85642174Y-56517826D01*
X85620500Y-56465500D01*
X85620500Y-45680436D01*
X85620499Y-45680435D01*
X85615516Y-45661840D01*
X85600021Y-45604011D01*
X85560460Y-45535489D01*
X85504511Y-45479540D01*
X81108317Y-41083346D01*
X81086643Y-41031020D01*
X81089444Y-41013631D01*
X81088873Y-41013503D01*
X81089668Y-41009959D01*
X81089670Y-41009955D01*
X81107226Y-40931717D01*
X81503615Y-24679755D01*
X81503636Y-24678788D01*
X81503651Y-24678026D01*
X81489137Y-24598022D01*
X81489134Y-24598016D01*
X81489134Y-24598013D01*
X81468208Y-24545408D01*
X81468201Y-24545395D01*
X81456773Y-24526626D01*
X81432399Y-24486593D01*
X81358565Y-24432626D01*
X81358558Y-24432623D01*
X81306553Y-24410218D01*
X81306551Y-24410217D01*
X81306547Y-24410216D01*
X81228134Y-24393467D01*
X81228137Y-24393467D01*
X76795182Y-24331031D01*
X74276885Y-24295562D01*
X74276884Y-24295562D01*
X74276883Y-24295562D01*
X74198030Y-24310095D01*
X74145402Y-24331032D01*
X74086606Y-24366831D01*
X74032638Y-24440664D01*
X74032633Y-24440672D01*
X74010228Y-24492677D01*
X74010226Y-24492685D01*
X73993478Y-24571088D01*
X73993477Y-24571091D01*
X73973752Y-25971486D01*
X73951343Y-26023502D01*
X73898717Y-26044437D01*
X73862659Y-26032661D01*
X73862015Y-26033827D01*
X73858377Y-26031816D01*
X73806055Y-26010144D01*
X73806045Y-26010141D01*
X73753384Y-25999666D01*
X73727410Y-25994500D01*
X73727408Y-25994500D01*
X69867871Y-25994500D01*
X69815545Y-25972826D01*
X69793871Y-25920500D01*
X69795293Y-25906064D01*
X69805500Y-25854747D01*
X69805500Y-24545253D01*
X69801795Y-24526626D01*
X69793867Y-24486769D01*
X69793749Y-24486593D01*
X69757689Y-24432626D01*
X69749552Y-24420448D01*
X69709173Y-24393467D01*
X69683232Y-24376133D01*
X69683233Y-24376133D01*
X69660062Y-24371524D01*
X69612970Y-24340057D01*
X69600500Y-24298946D01*
X69600500Y-23055123D01*
X69622174Y-23002797D01*
X71302797Y-21322174D01*
X71355123Y-21300500D01*
X84644877Y-21300500D01*
X84697203Y-21322174D01*
X88477826Y-25102797D01*
X88499500Y-25155123D01*
X88499500Y-68757376D01*
X88477826Y-68809702D01*
X87185528Y-70101999D01*
X87133202Y-70123673D01*
X87108763Y-70119521D01*
X87059704Y-70102355D01*
X87059701Y-70102354D01*
X87052090Y-70101640D01*
X87029266Y-70099500D01*
X86395734Y-70099500D01*
X86365301Y-70102354D01*
X86365299Y-70102354D01*
X86365295Y-70102355D01*
X86237118Y-70147206D01*
X86237116Y-70147207D01*
X86127853Y-70227846D01*
X86127846Y-70227853D01*
X86047207Y-70337116D01*
X86047206Y-70337118D01*
X86002355Y-70465295D01*
X86002354Y-70465299D01*
X86002354Y-70465301D01*
X85999500Y-70495734D01*
X85999500Y-71504266D01*
X86002354Y-71534699D01*
X86002354Y-71534701D01*
X86002355Y-71534704D01*
X86047206Y-71662881D01*
X86047207Y-71662883D01*
X86127846Y-71772146D01*
X86127853Y-71772153D01*
X86237116Y-71852792D01*
X86237118Y-71852793D01*
X86365295Y-71897644D01*
X86365301Y-71897646D01*
X86395734Y-71900500D01*
X86395741Y-71900500D01*
X87029258Y-71900500D01*
X87029266Y-71900500D01*
X87059699Y-71897646D01*
X87187882Y-71852793D01*
X87297150Y-71772150D01*
X87377793Y-71662882D01*
X87422646Y-71534699D01*
X87425500Y-71504266D01*
X87425500Y-70742623D01*
X87447174Y-70690297D01*
X88073054Y-70064417D01*
X89040460Y-69097011D01*
X89080021Y-69028489D01*
X89100499Y-68952064D01*
X89100500Y-68952064D01*
X89100500Y-24960436D01*
X89100499Y-24960435D01*
X89080022Y-24884014D01*
X89080020Y-24884009D01*
X89040459Y-24815488D01*
X84984511Y-20759540D01*
X84915990Y-20719979D01*
X84915985Y-20719977D01*
X84839564Y-20699500D01*
X84839562Y-20699500D01*
X71239562Y-20699500D01*
X71160438Y-20699500D01*
X71084012Y-20719978D01*
X71084011Y-20719978D01*
X71084009Y-20719979D01*
X71084007Y-20719980D01*
X71015492Y-20759537D01*
X69115489Y-22659540D01*
X69059540Y-22715488D01*
X69019979Y-22784009D01*
X69019977Y-22784014D01*
X68999500Y-22860435D01*
X68999500Y-24298946D01*
X68977826Y-24351272D01*
X68939938Y-24371524D01*
X68916767Y-24376133D01*
X68850449Y-24420447D01*
X68850447Y-24420449D01*
X68806133Y-24486767D01*
X68794500Y-24545253D01*
X68794500Y-25854747D01*
X68804707Y-25906064D01*
X68793657Y-25961613D01*
X68746565Y-25993078D01*
X68732129Y-25994500D01*
X67443836Y-25994500D01*
X67391510Y-25972826D01*
X67383620Y-25963511D01*
X67314284Y-25866440D01*
X67300500Y-25823429D01*
X67300500Y-25242233D01*
X67322174Y-25189907D01*
X67327288Y-25185787D01*
X67327131Y-25185606D01*
X67331131Y-25182140D01*
X67358082Y-25151035D01*
X67425377Y-25073373D01*
X67485165Y-24942457D01*
X67505647Y-24800000D01*
X67485165Y-24657543D01*
X67425377Y-24526627D01*
X67350892Y-24440666D01*
X67331131Y-24417860D01*
X67331129Y-24417859D01*
X67331128Y-24417857D01*
X67266204Y-24376133D01*
X67210054Y-24340047D01*
X67210050Y-24340046D01*
X67071964Y-24299500D01*
X67071961Y-24299500D01*
X66928039Y-24299500D01*
X66928036Y-24299500D01*
X66789949Y-24340046D01*
X66789945Y-24340047D01*
X66668875Y-24417855D01*
X66668868Y-24417860D01*
X66574623Y-24526626D01*
X66514834Y-24657545D01*
X66494353Y-24800000D01*
X66514834Y-24942454D01*
X66514834Y-24942455D01*
X66514835Y-24942457D01*
X66523046Y-24960436D01*
X66574623Y-25073373D01*
X66660118Y-25172041D01*
X66678003Y-25225780D01*
X66652651Y-25276426D01*
X66604192Y-25294500D01*
X61430652Y-25294500D01*
X61408359Y-25298934D01*
X61352016Y-25310141D01*
X61352006Y-25310144D01*
X61299685Y-25331816D01*
X61233014Y-25376364D01*
X61233007Y-25376370D01*
X61123994Y-25485382D01*
X61071668Y-25507056D01*
X61019343Y-25485381D01*
X60999046Y-25447266D01*
X60988889Y-25395361D01*
X60988889Y-25395359D01*
X60967215Y-25343033D01*
X60930587Y-25284739D01*
X60907622Y-25268445D01*
X60855998Y-25231816D01*
X60803677Y-25210144D01*
X60803667Y-25210141D01*
X60751006Y-25199666D01*
X60725032Y-25194500D01*
X56074000Y-25194500D01*
X56051707Y-25198934D01*
X55995364Y-25210141D01*
X55995354Y-25210144D01*
X55943037Y-25231814D01*
X55884739Y-25268445D01*
X55884737Y-25268447D01*
X55831816Y-25343033D01*
X55810144Y-25395354D01*
X55810141Y-25395364D01*
X55794500Y-25474001D01*
X50150500Y-25474001D01*
X50150500Y-15224500D01*
X50172174Y-15172174D01*
X50224500Y-15150500D01*
X163955500Y-15150500D01*
X164007826Y-15172174D01*
G37*
%TD.AperFunction*%
%TD*%
M02*
