%TF.GenerationSoftware,KiCad,Pcbnew,8.0.4*%
%TF.CreationDate,2025-02-03T15:53:43-05:00*%
%TF.ProjectId,AerospaceBigButton,4165726f-7370-4616-9365-426967427574,rev?*%
%TF.SameCoordinates,Original*%
%TF.FileFunction,Copper,L2,Bot*%
%TF.FilePolarity,Positive*%
%FSLAX46Y46*%
G04 Gerber Fmt 4.6, Leading zero omitted, Abs format (unit mm)*
G04 Created by KiCad (PCBNEW 8.0.4) date 2025-02-03 15:53:43*
%MOMM*%
%LPD*%
G01*
G04 APERTURE LIST*
G04 Aperture macros list*
%AMRoundRect*
0 Rectangle with rounded corners*
0 $1 Rounding radius*
0 $2 $3 $4 $5 $6 $7 $8 $9 X,Y pos of 4 corners*
0 Add a 4 corners polygon primitive as box body*
4,1,4,$2,$3,$4,$5,$6,$7,$8,$9,$2,$3,0*
0 Add four circle primitives for the rounded corners*
1,1,$1+$1,$2,$3*
1,1,$1+$1,$4,$5*
1,1,$1+$1,$6,$7*
1,1,$1+$1,$8,$9*
0 Add four rect primitives between the rounded corners*
20,1,$1+$1,$2,$3,$4,$5,0*
20,1,$1+$1,$4,$5,$6,$7,0*
20,1,$1+$1,$6,$7,$8,$9,0*
20,1,$1+$1,$8,$9,$2,$3,0*%
G04 Aperture macros list end*
%TA.AperFunction,ComponentPad*%
%ADD10C,3.600000*%
%TD*%
%TA.AperFunction,ConnectorPad*%
%ADD11C,5.600000*%
%TD*%
%TA.AperFunction,ComponentPad*%
%ADD12RoundRect,0.250000X0.625000X-0.350000X0.625000X0.350000X-0.625000X0.350000X-0.625000X-0.350000X0*%
%TD*%
%TA.AperFunction,ComponentPad*%
%ADD13O,1.750000X1.200000*%
%TD*%
%TA.AperFunction,ComponentPad*%
%ADD14R,3.800000X3.800000*%
%TD*%
%TA.AperFunction,ComponentPad*%
%ADD15C,3.800000*%
%TD*%
%TA.AperFunction,ComponentPad*%
%ADD16O,7.800000X5.000000*%
%TD*%
%TA.AperFunction,ComponentPad*%
%ADD17O,9.400000X5.000000*%
%TD*%
%TA.AperFunction,ComponentPad*%
%ADD18C,4.000000*%
%TD*%
%TA.AperFunction,ComponentPad*%
%ADD19R,1.700000X1.700000*%
%TD*%
%TA.AperFunction,ComponentPad*%
%ADD20O,1.700000X1.700000*%
%TD*%
%TA.AperFunction,ViaPad*%
%ADD21C,0.600000*%
%TD*%
%TA.AperFunction,Conductor*%
%ADD22C,0.200000*%
%TD*%
G04 APERTURE END LIST*
D10*
%TO.P,H4,1,1*%
%TO.N,GND*%
X55000000Y-90000000D03*
D11*
X55000000Y-90000000D03*
%TD*%
D10*
%TO.P,H1,1,1*%
%TO.N,GND*%
X55000000Y-20000000D03*
D11*
X55000000Y-20000000D03*
%TD*%
D12*
%TO.P,J6,1,Pin_1*%
%TO.N,Net-(J6-Pin_1)*%
X54850000Y-56400000D03*
D13*
%TO.P,J6,2,Pin_2*%
%TO.N,+5V*%
X54850000Y-54400000D03*
%TO.P,J6,3,Pin_3*%
%TO.N,GND*%
X54850000Y-52400000D03*
%TD*%
D14*
%TO.P,J3,1,Pin_1*%
%TO.N,GND*%
X83900000Y-27940000D03*
D15*
%TO.P,J3,2,Pin_2*%
%TO.N,VCC*%
X78900000Y-27940000D03*
%TD*%
D10*
%TO.P,H3,1,1*%
%TO.N,GND*%
X160000000Y-90000000D03*
D11*
X160000000Y-90000000D03*
%TD*%
D16*
%TO.P,SW1,1,A*%
%TO.N,/BIGSWITCH*%
X109760000Y-44150000D03*
D17*
%TO.P,SW1,2,B*%
%TO.N,GND*%
X135160000Y-34260000D03*
%TD*%
D10*
%TO.P,H2,1,1*%
%TO.N,GND*%
X160000000Y-20000000D03*
D11*
X160000000Y-20000000D03*
%TD*%
D14*
%TO.P,J5,1,Pin_1*%
%TO.N,/PYRO*%
X58420000Y-38100000D03*
D18*
%TO.P,J5,2,Pin_2*%
%TO.N,VCC*%
X63420000Y-38100000D03*
%TD*%
D19*
%TO.P,J1,1,Pin_1*%
%TO.N,+5V*%
X63500000Y-63500000D03*
D20*
%TO.P,J1,2,Pin_2*%
%TO.N,GND*%
X63500000Y-66040000D03*
%TO.P,J1,3,Pin_3*%
%TO.N,+3V3*%
X63500000Y-68580000D03*
%TO.P,J1,4,Pin_4*%
%TO.N,unconnected-(J1-Pin_4-Pad4)*%
X63500000Y-71120000D03*
%TO.P,J1,5,Pin_5*%
%TO.N,unconnected-(J1-Pin_5-Pad5)*%
X63500000Y-73660000D03*
%TO.P,J1,6,Pin_6*%
%TO.N,unconnected-(J1-Pin_6-Pad6)*%
X63500000Y-76200000D03*
%TO.P,J1,7,Pin_7*%
%TO.N,unconnected-(J1-Pin_7-Pad7)*%
X63500000Y-78740000D03*
%TD*%
D14*
%TO.P,J4,1,Pin_1*%
%TO.N,Net-(J4-Pin_1)*%
X63500000Y-27940000D03*
D18*
%TO.P,J4,2,Pin_2*%
%TO.N,/PYRO*%
X58500000Y-27940000D03*
%TD*%
D19*
%TO.P,J2,1,Pin_1*%
%TO.N,/VINSENSE*%
X81280000Y-63500000D03*
D20*
%TO.P,J2,2,Pin_2*%
%TO.N,/ARMED*%
X81280000Y-66040000D03*
%TO.P,J2,3,Pin_3*%
%TO.N,/CONT*%
X81280000Y-68580000D03*
%TO.P,J2,4,Pin_4*%
%TO.N,unconnected-(J2-Pin_4-Pad4)*%
X81280000Y-71120000D03*
%TO.P,J2,5,Pin_5*%
%TO.N,/FIRE*%
X81280000Y-73660000D03*
%TO.P,J2,6,Pin_6*%
%TO.N,/BIGSWITCH*%
X81280000Y-76200000D03*
%TO.P,J2,7,Pin_7*%
%TO.N,unconnected-(J2-Pin_7-Pad7)*%
X81280000Y-78740000D03*
%TD*%
D21*
%TO.N,/ARMED*%
X58400000Y-66000000D03*
%TO.N,GND*%
X152400000Y-50000000D03*
X52000000Y-38800000D03*
X119000000Y-89800000D03*
X86800000Y-20400000D03*
X64000000Y-19000000D03*
X61600000Y-58800000D03*
X71600000Y-87200000D03*
X72400000Y-57200000D03*
X110000000Y-74400000D03*
X159400000Y-27000000D03*
X66400000Y-22600000D03*
X79800000Y-49600000D03*
X115400000Y-65400000D03*
X50800000Y-47800000D03*
X69200000Y-20800000D03*
X115400000Y-19000000D03*
X53000000Y-31000000D03*
X59200000Y-69000000D03*
X125400000Y-77600000D03*
X51000000Y-66800000D03*
X86600000Y-32800000D03*
X91000000Y-41000000D03*
X142800000Y-74000000D03*
X122600000Y-34600000D03*
X69000000Y-81000000D03*
X85000000Y-23200000D03*
X92200000Y-84600000D03*
X60200000Y-89200000D03*
X76400000Y-23000000D03*
X73600000Y-68800000D03*
X98200000Y-19000000D03*
X148800000Y-26800000D03*
%TO.N,Net-(J4-Pin_1)*%
X75400000Y-43000000D03*
X67000000Y-24800000D03*
%TD*%
D22*
%TO.N,/ARMED*%
X80130000Y-64890000D02*
X81280000Y-66040000D01*
X59510000Y-64890000D02*
X80130000Y-64890000D01*
X58400000Y-66000000D02*
X59510000Y-64890000D01*
%TO.N,Net-(J4-Pin_1)*%
X75400000Y-43000000D02*
X75400000Y-33200000D01*
X75400000Y-33200000D02*
X67000000Y-24800000D01*
%TD*%
%TA.AperFunction,Conductor*%
%TO.N,GND*%
G36*
X164007826Y-15172174D02*
G01*
X164029500Y-15224500D01*
X164029500Y-95015500D01*
X164007826Y-95067826D01*
X163955500Y-95089500D01*
X50224500Y-95089500D01*
X50172174Y-95067826D01*
X50150500Y-95015500D01*
X50150500Y-78740000D01*
X62444417Y-78740000D01*
X62464700Y-78945934D01*
X62524768Y-79143954D01*
X62622315Y-79326450D01*
X62753590Y-79486410D01*
X62913550Y-79617685D01*
X63096046Y-79715232D01*
X63294066Y-79775300D01*
X63500000Y-79795583D01*
X63705934Y-79775300D01*
X63903954Y-79715232D01*
X64086450Y-79617685D01*
X64246410Y-79486410D01*
X64377685Y-79326450D01*
X64475232Y-79143954D01*
X64535300Y-78945934D01*
X64555583Y-78740000D01*
X80224417Y-78740000D01*
X80244700Y-78945934D01*
X80304768Y-79143954D01*
X80402315Y-79326450D01*
X80533590Y-79486410D01*
X80693550Y-79617685D01*
X80876046Y-79715232D01*
X81074066Y-79775300D01*
X81280000Y-79795583D01*
X81485934Y-79775300D01*
X81683954Y-79715232D01*
X81866450Y-79617685D01*
X82026410Y-79486410D01*
X82157685Y-79326450D01*
X82255232Y-79143954D01*
X82315300Y-78945934D01*
X82335583Y-78740000D01*
X82315300Y-78534066D01*
X82255232Y-78336046D01*
X82157685Y-78153550D01*
X82026410Y-77993590D01*
X81866450Y-77862315D01*
X81683954Y-77764768D01*
X81572158Y-77730855D01*
X81485935Y-77704700D01*
X81280000Y-77684417D01*
X81074064Y-77704700D01*
X80876043Y-77764769D01*
X80693549Y-77862315D01*
X80533590Y-77993589D01*
X80533589Y-77993590D01*
X80402315Y-78153549D01*
X80304769Y-78336043D01*
X80244700Y-78534064D01*
X80244700Y-78534066D01*
X80224417Y-78740000D01*
X64555583Y-78740000D01*
X64535300Y-78534066D01*
X64475232Y-78336046D01*
X64377685Y-78153550D01*
X64246410Y-77993590D01*
X64086450Y-77862315D01*
X63903954Y-77764768D01*
X63792158Y-77730855D01*
X63705935Y-77704700D01*
X63500000Y-77684417D01*
X63294064Y-77704700D01*
X63096043Y-77764769D01*
X62913549Y-77862315D01*
X62753590Y-77993589D01*
X62753589Y-77993590D01*
X62622315Y-78153549D01*
X62524769Y-78336043D01*
X62464700Y-78534064D01*
X62464700Y-78534066D01*
X62444417Y-78740000D01*
X50150500Y-78740000D01*
X50150500Y-76200000D01*
X62444417Y-76200000D01*
X62464700Y-76405934D01*
X62524768Y-76603954D01*
X62622315Y-76786450D01*
X62753590Y-76946410D01*
X62913550Y-77077685D01*
X63096046Y-77175232D01*
X63294066Y-77235300D01*
X63500000Y-77255583D01*
X63705934Y-77235300D01*
X63903954Y-77175232D01*
X64086450Y-77077685D01*
X64246410Y-76946410D01*
X64377685Y-76786450D01*
X64475232Y-76603954D01*
X64535300Y-76405934D01*
X64555583Y-76200000D01*
X80224417Y-76200000D01*
X80244700Y-76405934D01*
X80304768Y-76603954D01*
X80402315Y-76786450D01*
X80533590Y-76946410D01*
X80693550Y-77077685D01*
X80876046Y-77175232D01*
X81074066Y-77235300D01*
X81280000Y-77255583D01*
X81485934Y-77235300D01*
X81683954Y-77175232D01*
X81866450Y-77077685D01*
X82026410Y-76946410D01*
X82157685Y-76786450D01*
X82255232Y-76603954D01*
X82315300Y-76405934D01*
X82335583Y-76200000D01*
X82315300Y-75994066D01*
X82255232Y-75796046D01*
X82157685Y-75613550D01*
X82026410Y-75453590D01*
X81866450Y-75322315D01*
X81683954Y-75224768D01*
X81572158Y-75190855D01*
X81485935Y-75164700D01*
X81280000Y-75144417D01*
X81074064Y-75164700D01*
X80876043Y-75224769D01*
X80693549Y-75322315D01*
X80533590Y-75453589D01*
X80533589Y-75453590D01*
X80402315Y-75613549D01*
X80304769Y-75796043D01*
X80244700Y-75994064D01*
X80244700Y-75994066D01*
X80224417Y-76200000D01*
X64555583Y-76200000D01*
X64535300Y-75994066D01*
X64475232Y-75796046D01*
X64377685Y-75613550D01*
X64246410Y-75453590D01*
X64086450Y-75322315D01*
X63903954Y-75224768D01*
X63792158Y-75190855D01*
X63705935Y-75164700D01*
X63500000Y-75144417D01*
X63294064Y-75164700D01*
X63096043Y-75224769D01*
X62913549Y-75322315D01*
X62753590Y-75453589D01*
X62753589Y-75453590D01*
X62622315Y-75613549D01*
X62524769Y-75796043D01*
X62464700Y-75994064D01*
X62464700Y-75994066D01*
X62444417Y-76200000D01*
X50150500Y-76200000D01*
X50150500Y-73660000D01*
X62444417Y-73660000D01*
X62464700Y-73865934D01*
X62524768Y-74063954D01*
X62622315Y-74246450D01*
X62753590Y-74406410D01*
X62913550Y-74537685D01*
X63096046Y-74635232D01*
X63294066Y-74695300D01*
X63500000Y-74715583D01*
X63705934Y-74695300D01*
X63903954Y-74635232D01*
X64086450Y-74537685D01*
X64246410Y-74406410D01*
X64377685Y-74246450D01*
X64475232Y-74063954D01*
X64535300Y-73865934D01*
X64555583Y-73660000D01*
X80224417Y-73660000D01*
X80244700Y-73865934D01*
X80304768Y-74063954D01*
X80402315Y-74246450D01*
X80533590Y-74406410D01*
X80693550Y-74537685D01*
X80876046Y-74635232D01*
X81074066Y-74695300D01*
X81280000Y-74715583D01*
X81485934Y-74695300D01*
X81683954Y-74635232D01*
X81866450Y-74537685D01*
X82026410Y-74406410D01*
X82157685Y-74246450D01*
X82255232Y-74063954D01*
X82315300Y-73865934D01*
X82335583Y-73660000D01*
X82315300Y-73454066D01*
X82255232Y-73256046D01*
X82157685Y-73073550D01*
X82026410Y-72913590D01*
X81866450Y-72782315D01*
X81683954Y-72684768D01*
X81572158Y-72650855D01*
X81485935Y-72624700D01*
X81280000Y-72604417D01*
X81074064Y-72624700D01*
X80876043Y-72684769D01*
X80693549Y-72782315D01*
X80533590Y-72913589D01*
X80533589Y-72913590D01*
X80402315Y-73073549D01*
X80304769Y-73256043D01*
X80244700Y-73454064D01*
X80244700Y-73454066D01*
X80224417Y-73660000D01*
X64555583Y-73660000D01*
X64535300Y-73454066D01*
X64475232Y-73256046D01*
X64377685Y-73073550D01*
X64246410Y-72913590D01*
X64086450Y-72782315D01*
X63903954Y-72684768D01*
X63792158Y-72650855D01*
X63705935Y-72624700D01*
X63500000Y-72604417D01*
X63294064Y-72624700D01*
X63096043Y-72684769D01*
X62913549Y-72782315D01*
X62753590Y-72913589D01*
X62753589Y-72913590D01*
X62622315Y-73073549D01*
X62524769Y-73256043D01*
X62464700Y-73454064D01*
X62464700Y-73454066D01*
X62444417Y-73660000D01*
X50150500Y-73660000D01*
X50150500Y-71120000D01*
X62444417Y-71120000D01*
X62464700Y-71325934D01*
X62524768Y-71523954D01*
X62622315Y-71706450D01*
X62753590Y-71866410D01*
X62913550Y-71997685D01*
X63096046Y-72095232D01*
X63294066Y-72155300D01*
X63500000Y-72175583D01*
X63705934Y-72155300D01*
X63903954Y-72095232D01*
X64086450Y-71997685D01*
X64246410Y-71866410D01*
X64377685Y-71706450D01*
X64475232Y-71523954D01*
X64535300Y-71325934D01*
X64555583Y-71120000D01*
X80224417Y-71120000D01*
X80244700Y-71325934D01*
X80304768Y-71523954D01*
X80402315Y-71706450D01*
X80533590Y-71866410D01*
X80693550Y-71997685D01*
X80876046Y-72095232D01*
X81074066Y-72155300D01*
X81280000Y-72175583D01*
X81485934Y-72155300D01*
X81683954Y-72095232D01*
X81866450Y-71997685D01*
X82026410Y-71866410D01*
X82157685Y-71706450D01*
X82255232Y-71523954D01*
X82315300Y-71325934D01*
X82335583Y-71120000D01*
X82315300Y-70914066D01*
X82255232Y-70716046D01*
X82157685Y-70533550D01*
X82026410Y-70373590D01*
X81866450Y-70242315D01*
X81683954Y-70144768D01*
X81572158Y-70110855D01*
X81485935Y-70084700D01*
X81280000Y-70064417D01*
X81074064Y-70084700D01*
X80876043Y-70144769D01*
X80693549Y-70242315D01*
X80533590Y-70373589D01*
X80533589Y-70373590D01*
X80402315Y-70533549D01*
X80304769Y-70716043D01*
X80244700Y-70914064D01*
X80244700Y-70914066D01*
X80224417Y-71120000D01*
X64555583Y-71120000D01*
X64535300Y-70914066D01*
X64475232Y-70716046D01*
X64377685Y-70533550D01*
X64246410Y-70373590D01*
X64086450Y-70242315D01*
X63903954Y-70144768D01*
X63792158Y-70110855D01*
X63705935Y-70084700D01*
X63500000Y-70064417D01*
X63294064Y-70084700D01*
X63096043Y-70144769D01*
X62913549Y-70242315D01*
X62753590Y-70373589D01*
X62753589Y-70373590D01*
X62622315Y-70533549D01*
X62524769Y-70716043D01*
X62464700Y-70914064D01*
X62464700Y-70914066D01*
X62444417Y-71120000D01*
X50150500Y-71120000D01*
X50150500Y-68580000D01*
X62444417Y-68580000D01*
X62464700Y-68785934D01*
X62524768Y-68983954D01*
X62622315Y-69166450D01*
X62753590Y-69326410D01*
X62913550Y-69457685D01*
X63096046Y-69555232D01*
X63294066Y-69615300D01*
X63500000Y-69635583D01*
X63705934Y-69615300D01*
X63903954Y-69555232D01*
X64086450Y-69457685D01*
X64246410Y-69326410D01*
X64377685Y-69166450D01*
X64475232Y-68983954D01*
X64535300Y-68785934D01*
X64555583Y-68580000D01*
X80224417Y-68580000D01*
X80244700Y-68785934D01*
X80304768Y-68983954D01*
X80402315Y-69166450D01*
X80533590Y-69326410D01*
X80693550Y-69457685D01*
X80876046Y-69555232D01*
X81074066Y-69615300D01*
X81280000Y-69635583D01*
X81485934Y-69615300D01*
X81683954Y-69555232D01*
X81866450Y-69457685D01*
X82026410Y-69326410D01*
X82157685Y-69166450D01*
X82255232Y-68983954D01*
X82315300Y-68785934D01*
X82335583Y-68580000D01*
X82315300Y-68374066D01*
X82255232Y-68176046D01*
X82157685Y-67993550D01*
X82026410Y-67833590D01*
X81866450Y-67702315D01*
X81683954Y-67604768D01*
X81572158Y-67570855D01*
X81485935Y-67544700D01*
X81280000Y-67524417D01*
X81074064Y-67544700D01*
X80876043Y-67604769D01*
X80693549Y-67702315D01*
X80533590Y-67833589D01*
X80533589Y-67833590D01*
X80402315Y-67993549D01*
X80304769Y-68176043D01*
X80244700Y-68374064D01*
X80244700Y-68374066D01*
X80224417Y-68580000D01*
X64555583Y-68580000D01*
X64535300Y-68374066D01*
X64475232Y-68176046D01*
X64377685Y-67993550D01*
X64246410Y-67833590D01*
X64086450Y-67702315D01*
X63903954Y-67604768D01*
X63792158Y-67570855D01*
X63705935Y-67544700D01*
X63500000Y-67524417D01*
X63294064Y-67544700D01*
X63096043Y-67604769D01*
X62913549Y-67702315D01*
X62753590Y-67833589D01*
X62753589Y-67833590D01*
X62622315Y-67993549D01*
X62524769Y-68176043D01*
X62464700Y-68374064D01*
X62464700Y-68374066D01*
X62444417Y-68580000D01*
X50150500Y-68580000D01*
X50150500Y-66000000D01*
X57894353Y-66000000D01*
X57914834Y-66142454D01*
X57974623Y-66273373D01*
X58068868Y-66382139D01*
X58068869Y-66382140D01*
X58068872Y-66382143D01*
X58189947Y-66459953D01*
X58296403Y-66491211D01*
X58328035Y-66500499D01*
X58328037Y-66500500D01*
X58328039Y-66500500D01*
X58471963Y-66500500D01*
X58471964Y-66500499D01*
X58610053Y-66459953D01*
X58731128Y-66382143D01*
X58825377Y-66273373D01*
X58885165Y-66142457D01*
X58905647Y-66000000D01*
X58900776Y-65966128D01*
X58914782Y-65911253D01*
X58921690Y-65903279D01*
X59612797Y-65212174D01*
X59665123Y-65190500D01*
X79974877Y-65190500D01*
X80027203Y-65212174D01*
X80316922Y-65501893D01*
X80338596Y-65554219D01*
X80329859Y-65589101D01*
X80304769Y-65636043D01*
X80244700Y-65834064D01*
X80228357Y-66000000D01*
X80224417Y-66040000D01*
X80244700Y-66245934D01*
X80304768Y-66443954D01*
X80402315Y-66626450D01*
X80533590Y-66786410D01*
X80693550Y-66917685D01*
X80876046Y-67015232D01*
X81074066Y-67075300D01*
X81280000Y-67095583D01*
X81485934Y-67075300D01*
X81683954Y-67015232D01*
X81866450Y-66917685D01*
X82026410Y-66786410D01*
X82157685Y-66626450D01*
X82255232Y-66443954D01*
X82315300Y-66245934D01*
X82335583Y-66040000D01*
X82315300Y-65834066D01*
X82255232Y-65636046D01*
X82157685Y-65453550D01*
X82026410Y-65293590D01*
X81866450Y-65162315D01*
X81683954Y-65064768D01*
X81572158Y-65030855D01*
X81485935Y-65004700D01*
X81280000Y-64984417D01*
X81074064Y-65004700D01*
X80876043Y-65064769D01*
X80829101Y-65089859D01*
X80772736Y-65095409D01*
X80741893Y-65076922D01*
X80339601Y-64674630D01*
X80317927Y-64622304D01*
X80339601Y-64569978D01*
X80391927Y-64548304D01*
X80406354Y-64549724D01*
X80410252Y-64550500D01*
X80410257Y-64550500D01*
X82149746Y-64550500D01*
X82149748Y-64550500D01*
X82208231Y-64538867D01*
X82274552Y-64494552D01*
X82318867Y-64428231D01*
X82330500Y-64369748D01*
X82330500Y-62630252D01*
X82318867Y-62571769D01*
X82274552Y-62505448D01*
X82252343Y-62490608D01*
X82208232Y-62461133D01*
X82208233Y-62461133D01*
X82178989Y-62455316D01*
X82149748Y-62449500D01*
X80410252Y-62449500D01*
X80381010Y-62455316D01*
X80351767Y-62461133D01*
X80285449Y-62505447D01*
X80285447Y-62505449D01*
X80241133Y-62571767D01*
X80229500Y-62630253D01*
X80229500Y-64369746D01*
X80241133Y-64428232D01*
X80278765Y-64484551D01*
X80289815Y-64540100D01*
X80258350Y-64587192D01*
X80202801Y-64598242D01*
X80198084Y-64597142D01*
X80169564Y-64589500D01*
X80169562Y-64589500D01*
X64569554Y-64589500D01*
X64517228Y-64567826D01*
X64495554Y-64515500D01*
X64508026Y-64474387D01*
X64538866Y-64428232D01*
X64538865Y-64428232D01*
X64538867Y-64428231D01*
X64550500Y-64369748D01*
X64550500Y-62630252D01*
X64538867Y-62571769D01*
X64494552Y-62505448D01*
X64472343Y-62490608D01*
X64428232Y-62461133D01*
X64428233Y-62461133D01*
X64398989Y-62455316D01*
X64369748Y-62449500D01*
X62630252Y-62449500D01*
X62601010Y-62455316D01*
X62571767Y-62461133D01*
X62505449Y-62505447D01*
X62505447Y-62505449D01*
X62461133Y-62571767D01*
X62449500Y-62630253D01*
X62449500Y-64369746D01*
X62461133Y-64428232D01*
X62491974Y-64474387D01*
X62503024Y-64529935D01*
X62471559Y-64577028D01*
X62430446Y-64589500D01*
X59470436Y-64589500D01*
X59394014Y-64609977D01*
X59394009Y-64609979D01*
X59325488Y-64649540D01*
X58497202Y-65477826D01*
X58444876Y-65499500D01*
X58328036Y-65499500D01*
X58189949Y-65540046D01*
X58189945Y-65540047D01*
X58068875Y-65617855D01*
X58068868Y-65617860D01*
X57974623Y-65726626D01*
X57914834Y-65857545D01*
X57894353Y-66000000D01*
X50150500Y-66000000D01*
X50150500Y-55995734D01*
X53774500Y-55995734D01*
X53774500Y-56804266D01*
X53777354Y-56834699D01*
X53777354Y-56834701D01*
X53777355Y-56834704D01*
X53822206Y-56962881D01*
X53822207Y-56962883D01*
X53902846Y-57072146D01*
X53902853Y-57072153D01*
X54012116Y-57152792D01*
X54012118Y-57152793D01*
X54140295Y-57197644D01*
X54140301Y-57197646D01*
X54170734Y-57200500D01*
X54170741Y-57200500D01*
X55529258Y-57200500D01*
X55529266Y-57200500D01*
X55559699Y-57197646D01*
X55687882Y-57152793D01*
X55797150Y-57072150D01*
X55877793Y-56962882D01*
X55922646Y-56834699D01*
X55925500Y-56804266D01*
X55925500Y-55995734D01*
X55922646Y-55965301D01*
X55877793Y-55837118D01*
X55877792Y-55837116D01*
X55797153Y-55727853D01*
X55797146Y-55727846D01*
X55687883Y-55647207D01*
X55687881Y-55647206D01*
X55559704Y-55602355D01*
X55559705Y-55602355D01*
X55559700Y-55602354D01*
X55559699Y-55602354D01*
X55529266Y-55599500D01*
X54170734Y-55599500D01*
X54140301Y-55602354D01*
X54140299Y-55602354D01*
X54140295Y-55602355D01*
X54012118Y-55647206D01*
X54012116Y-55647207D01*
X53902853Y-55727846D01*
X53902846Y-55727853D01*
X53822207Y-55837116D01*
X53822206Y-55837118D01*
X53777355Y-55965295D01*
X53777354Y-55965299D01*
X53777354Y-55965301D01*
X53774500Y-55995734D01*
X50150500Y-55995734D01*
X50150500Y-54321159D01*
X53774500Y-54321159D01*
X53774500Y-54478840D01*
X53805261Y-54633491D01*
X53805264Y-54633501D01*
X53865603Y-54779174D01*
X53865605Y-54779177D01*
X53865606Y-54779179D01*
X53953211Y-54910289D01*
X54064711Y-55021789D01*
X54195821Y-55109394D01*
X54195826Y-55109396D01*
X54195825Y-55109396D01*
X54341498Y-55169735D01*
X54341503Y-55169737D01*
X54496158Y-55200500D01*
X54496160Y-55200500D01*
X55203840Y-55200500D01*
X55203842Y-55200500D01*
X55358497Y-55169737D01*
X55504179Y-55109394D01*
X55635289Y-55021789D01*
X55657085Y-54999993D01*
X117844496Y-54999993D01*
X117844496Y-55000006D01*
X117864502Y-55534716D01*
X117864503Y-55534727D01*
X117924416Y-56066465D01*
X117924417Y-56066475D01*
X118023897Y-56592243D01*
X118023902Y-56592264D01*
X118162393Y-57109118D01*
X118320325Y-57560460D01*
X118339129Y-57614199D01*
X118553114Y-58104657D01*
X118803152Y-58577752D01*
X119087845Y-59030839D01*
X119405602Y-59461384D01*
X119754644Y-59866979D01*
X120133021Y-60245356D01*
X120538616Y-60594398D01*
X120969161Y-60912155D01*
X121422239Y-61196842D01*
X121422239Y-61196843D01*
X121422245Y-61196846D01*
X121422248Y-61196848D01*
X121895343Y-61446886D01*
X122385801Y-61660871D01*
X122795721Y-61804308D01*
X122890881Y-61837606D01*
X123407735Y-61976097D01*
X123407744Y-61976099D01*
X123407751Y-61976101D01*
X123933527Y-62075583D01*
X124465269Y-62135496D01*
X124465274Y-62135496D01*
X124465283Y-62135497D01*
X124999993Y-62155504D01*
X125000000Y-62155504D01*
X125000007Y-62155504D01*
X125534716Y-62135497D01*
X125534724Y-62135496D01*
X125534731Y-62135496D01*
X126066473Y-62075583D01*
X126592249Y-61976101D01*
X127109122Y-61837605D01*
X127614199Y-61660871D01*
X128104657Y-61446886D01*
X128577752Y-61196848D01*
X129030839Y-60912155D01*
X129461384Y-60594398D01*
X129866979Y-60245356D01*
X130245356Y-59866979D01*
X130594398Y-59461384D01*
X130912155Y-59030839D01*
X131196848Y-58577752D01*
X131446886Y-58104657D01*
X131660871Y-57614199D01*
X131837605Y-57109122D01*
X131976101Y-56592249D01*
X132075583Y-56066473D01*
X132135496Y-55534731D01*
X132135886Y-55524324D01*
X132155504Y-55000006D01*
X132155504Y-54999993D01*
X132135497Y-54465283D01*
X132135496Y-54465272D01*
X132135496Y-54465269D01*
X132075583Y-53933527D01*
X131976101Y-53407751D01*
X131848989Y-52933365D01*
X131837606Y-52890881D01*
X131837605Y-52890878D01*
X131660871Y-52385801D01*
X131446886Y-51895343D01*
X131196848Y-51422248D01*
X130912155Y-50969161D01*
X130594398Y-50538616D01*
X130245356Y-50133021D01*
X129866979Y-49754644D01*
X129461384Y-49405602D01*
X129030839Y-49087845D01*
X128577760Y-48803157D01*
X128577760Y-48803156D01*
X128461425Y-48741671D01*
X128104657Y-48553114D01*
X127614199Y-48339129D01*
X127433184Y-48275789D01*
X127109118Y-48162393D01*
X126592264Y-48023902D01*
X126592243Y-48023897D01*
X126066475Y-47924417D01*
X126066465Y-47924416D01*
X125534727Y-47864503D01*
X125534716Y-47864502D01*
X125000007Y-47844496D01*
X124999993Y-47844496D01*
X124465283Y-47864502D01*
X124465272Y-47864503D01*
X123933534Y-47924416D01*
X123933524Y-47924417D01*
X123407756Y-48023897D01*
X123407735Y-48023902D01*
X122890881Y-48162393D01*
X122385803Y-48339128D01*
X121895349Y-48553111D01*
X121422239Y-48803156D01*
X121422239Y-48803157D01*
X120969158Y-49087847D01*
X120969156Y-49087848D01*
X120538609Y-49405607D01*
X120133019Y-49754645D01*
X119754645Y-50133019D01*
X119405607Y-50538609D01*
X119087848Y-50969156D01*
X119087847Y-50969158D01*
X118803157Y-51422239D01*
X118803156Y-51422239D01*
X118553111Y-51895349D01*
X118339128Y-52385803D01*
X118162393Y-52890881D01*
X118023902Y-53407735D01*
X118023897Y-53407756D01*
X117924417Y-53933524D01*
X117924416Y-53933534D01*
X117864503Y-54465272D01*
X117864502Y-54465283D01*
X117844496Y-54999993D01*
X55657085Y-54999993D01*
X55746789Y-54910289D01*
X55834394Y-54779179D01*
X55894737Y-54633497D01*
X55925500Y-54478842D01*
X55925500Y-54321158D01*
X55894737Y-54166503D01*
X55834394Y-54020821D01*
X55746789Y-53889711D01*
X55635289Y-53778211D01*
X55504179Y-53690606D01*
X55504175Y-53690604D01*
X55504173Y-53690603D01*
X55504174Y-53690603D01*
X55358501Y-53630264D01*
X55358491Y-53630261D01*
X55254925Y-53609661D01*
X55203842Y-53599500D01*
X54496158Y-53599500D01*
X54452315Y-53608220D01*
X54341508Y-53630261D01*
X54341498Y-53630264D01*
X54195825Y-53690603D01*
X54064711Y-53778210D01*
X54064710Y-53778212D01*
X53953212Y-53889710D01*
X53953210Y-53889711D01*
X53865603Y-54020825D01*
X53805264Y-54166498D01*
X53805261Y-54166508D01*
X53774500Y-54321159D01*
X50150500Y-54321159D01*
X50150500Y-43998346D01*
X105659500Y-43998346D01*
X105659500Y-44301653D01*
X105693460Y-44603065D01*
X105760952Y-44898767D01*
X105760956Y-44898779D01*
X105861130Y-45185061D01*
X105861132Y-45185065D01*
X105992735Y-45458341D01*
X106154108Y-45715164D01*
X106343221Y-45952304D01*
X106557696Y-46166779D01*
X106794836Y-46355892D01*
X107051659Y-46517265D01*
X107324935Y-46648868D01*
X107611228Y-46749046D01*
X107906937Y-46816540D01*
X108208343Y-46850500D01*
X108208347Y-46850500D01*
X111311653Y-46850500D01*
X111311657Y-46850500D01*
X111613063Y-46816540D01*
X111908772Y-46749046D01*
X112195065Y-46648868D01*
X112468341Y-46517265D01*
X112725164Y-46355892D01*
X112962304Y-46166779D01*
X113176779Y-45952304D01*
X113365892Y-45715164D01*
X113527265Y-45458341D01*
X113658868Y-45185065D01*
X113759046Y-44898772D01*
X113826540Y-44603063D01*
X113860500Y-44301657D01*
X113860500Y-43998343D01*
X113826540Y-43696937D01*
X113759046Y-43401228D01*
X113658868Y-43114935D01*
X113527265Y-42841659D01*
X113365892Y-42584836D01*
X113176779Y-42347696D01*
X112962304Y-42133221D01*
X112725164Y-41944108D01*
X112468341Y-41782735D01*
X112195065Y-41651132D01*
X112195061Y-41651130D01*
X111908779Y-41550956D01*
X111908767Y-41550952D01*
X111613063Y-41483460D01*
X111613066Y-41483460D01*
X111483889Y-41468905D01*
X111311657Y-41449500D01*
X108208343Y-41449500D01*
X108036111Y-41468905D01*
X107906934Y-41483460D01*
X107611232Y-41550952D01*
X107611220Y-41550956D01*
X107324938Y-41651130D01*
X107051660Y-41782734D01*
X106794835Y-41944108D01*
X106557696Y-42133220D01*
X106343220Y-42347696D01*
X106154108Y-42584835D01*
X105992734Y-42841660D01*
X105861130Y-43114938D01*
X105760956Y-43401220D01*
X105760952Y-43401232D01*
X105693460Y-43696934D01*
X105659500Y-43998346D01*
X50150500Y-43998346D01*
X50150500Y-36180253D01*
X56319500Y-36180253D01*
X56319500Y-40019746D01*
X56331133Y-40078232D01*
X56360608Y-40122343D01*
X56375448Y-40144552D01*
X56419560Y-40174027D01*
X56441767Y-40188866D01*
X56441768Y-40188866D01*
X56441769Y-40188867D01*
X56500252Y-40200500D01*
X56500254Y-40200500D01*
X60339746Y-40200500D01*
X60339748Y-40200500D01*
X60398231Y-40188867D01*
X60464552Y-40144552D01*
X60508867Y-40078231D01*
X60520500Y-40019748D01*
X60520500Y-38100000D01*
X61214778Y-38100000D01*
X61233644Y-38387839D01*
X61233644Y-38387843D01*
X61233645Y-38387846D01*
X61289916Y-38670744D01*
X61289920Y-38670756D01*
X61382641Y-38943903D01*
X61510221Y-39202609D01*
X61510227Y-39202620D01*
X61669764Y-39441382D01*
X61670480Y-39442454D01*
X61860673Y-39659327D01*
X62077546Y-39849520D01*
X62156779Y-39902462D01*
X62317379Y-40009772D01*
X62317384Y-40009775D01*
X62317389Y-40009778D01*
X62576098Y-40137359D01*
X62849247Y-40230081D01*
X62849251Y-40230081D01*
X62849255Y-40230083D01*
X62990704Y-40258218D01*
X63132161Y-40286356D01*
X63420000Y-40305222D01*
X63707839Y-40286356D01*
X63918136Y-40244525D01*
X63990744Y-40230083D01*
X63990745Y-40230082D01*
X63990753Y-40230081D01*
X64263902Y-40137359D01*
X64522611Y-40009778D01*
X64762454Y-39849520D01*
X64979327Y-39659327D01*
X65169520Y-39442454D01*
X65329778Y-39202611D01*
X65457359Y-38943902D01*
X65550081Y-38670753D01*
X65606356Y-38387839D01*
X65625222Y-38100000D01*
X65606356Y-37812161D01*
X65550081Y-37529247D01*
X65457359Y-37256098D01*
X65329778Y-36997389D01*
X65329775Y-36997384D01*
X65329772Y-36997379D01*
X65169521Y-36757548D01*
X65169520Y-36757546D01*
X64979327Y-36540673D01*
X64762454Y-36350480D01*
X64761382Y-36349764D01*
X64522620Y-36190227D01*
X64522609Y-36190221D01*
X64263903Y-36062641D01*
X63990756Y-35969920D01*
X63990744Y-35969916D01*
X63707846Y-35913645D01*
X63707843Y-35913644D01*
X63707839Y-35913644D01*
X63420000Y-35894778D01*
X63132161Y-35913644D01*
X63132157Y-35913644D01*
X63132153Y-35913645D01*
X62849255Y-35969916D01*
X62849243Y-35969920D01*
X62576096Y-36062641D01*
X62317390Y-36190221D01*
X62317379Y-36190227D01*
X62077548Y-36350478D01*
X61860673Y-36540673D01*
X61670478Y-36757548D01*
X61510227Y-36997379D01*
X61510221Y-36997390D01*
X61382641Y-37256096D01*
X61289920Y-37529243D01*
X61289916Y-37529255D01*
X61233645Y-37812153D01*
X61233644Y-37812157D01*
X61233644Y-37812161D01*
X61214778Y-38100000D01*
X60520500Y-38100000D01*
X60520500Y-36180252D01*
X60508867Y-36121769D01*
X60464552Y-36055448D01*
X60442343Y-36040608D01*
X60398232Y-36011133D01*
X60398233Y-36011133D01*
X60368989Y-36005316D01*
X60339748Y-35999500D01*
X56500252Y-35999500D01*
X56471010Y-36005316D01*
X56441767Y-36011133D01*
X56375449Y-36055447D01*
X56375447Y-36055449D01*
X56331133Y-36121767D01*
X56319500Y-36180253D01*
X50150500Y-36180253D01*
X50150500Y-27940000D01*
X56294778Y-27940000D01*
X56313644Y-28227839D01*
X56313644Y-28227843D01*
X56313645Y-28227846D01*
X56369916Y-28510744D01*
X56369920Y-28510756D01*
X56462641Y-28783903D01*
X56590221Y-29042609D01*
X56590227Y-29042620D01*
X56749764Y-29281382D01*
X56750480Y-29282454D01*
X56940673Y-29499327D01*
X57157546Y-29689520D01*
X57236779Y-29742462D01*
X57397379Y-29849772D01*
X57397384Y-29849775D01*
X57397389Y-29849778D01*
X57656098Y-29977359D01*
X57929247Y-30070081D01*
X57929251Y-30070081D01*
X57929255Y-30070083D01*
X58070704Y-30098218D01*
X58212161Y-30126356D01*
X58500000Y-30145222D01*
X58787839Y-30126356D01*
X58998136Y-30084525D01*
X59070744Y-30070083D01*
X59070745Y-30070082D01*
X59070753Y-30070081D01*
X59343902Y-29977359D01*
X59602611Y-29849778D01*
X59842454Y-29689520D01*
X60059327Y-29499327D01*
X60249520Y-29282454D01*
X60409778Y-29042611D01*
X60537359Y-28783902D01*
X60630081Y-28510753D01*
X60630621Y-28508041D01*
X60644525Y-28438136D01*
X60686356Y-28227839D01*
X60705222Y-27940000D01*
X60686356Y-27652161D01*
X60630624Y-27371976D01*
X60630083Y-27369255D01*
X60630081Y-27369251D01*
X60630081Y-27369247D01*
X60537359Y-27096098D01*
X60409778Y-26837389D01*
X60409775Y-26837384D01*
X60409772Y-26837379D01*
X60249521Y-26597548D01*
X60249520Y-26597546D01*
X60059327Y-26380673D01*
X59842454Y-26190480D01*
X59841382Y-26189764D01*
X59602620Y-26030227D01*
X59602609Y-26030221D01*
X59582396Y-26020253D01*
X61399500Y-26020253D01*
X61399500Y-29859746D01*
X61411133Y-29918232D01*
X61440608Y-29962343D01*
X61455448Y-29984552D01*
X61480619Y-30001371D01*
X61521767Y-30028866D01*
X61521768Y-30028866D01*
X61521769Y-30028867D01*
X61580252Y-30040500D01*
X61580254Y-30040500D01*
X65419746Y-30040500D01*
X65419748Y-30040500D01*
X65478231Y-30028867D01*
X65544552Y-29984552D01*
X65588867Y-29918231D01*
X65600500Y-29859748D01*
X65600500Y-26020252D01*
X65588867Y-25961769D01*
X65585116Y-25956156D01*
X65549358Y-25902641D01*
X65544552Y-25895448D01*
X65519380Y-25878628D01*
X65478232Y-25851133D01*
X65478233Y-25851133D01*
X65448989Y-25845316D01*
X65419748Y-25839500D01*
X61580252Y-25839500D01*
X61551010Y-25845316D01*
X61521767Y-25851133D01*
X61455449Y-25895447D01*
X61455447Y-25895449D01*
X61411133Y-25961767D01*
X61399500Y-26020253D01*
X59582396Y-26020253D01*
X59343903Y-25902641D01*
X59070756Y-25809920D01*
X59070744Y-25809916D01*
X58787846Y-25753645D01*
X58787843Y-25753644D01*
X58787839Y-25753644D01*
X58500000Y-25734778D01*
X58212161Y-25753644D01*
X58212157Y-25753644D01*
X58212153Y-25753645D01*
X57929255Y-25809916D01*
X57929243Y-25809920D01*
X57656096Y-25902641D01*
X57397390Y-26030221D01*
X57397379Y-26030227D01*
X57157548Y-26190478D01*
X56940673Y-26380673D01*
X56750478Y-26597548D01*
X56590227Y-26837379D01*
X56590221Y-26837390D01*
X56462641Y-27096096D01*
X56369920Y-27369243D01*
X56369916Y-27369255D01*
X56313645Y-27652153D01*
X56313644Y-27652157D01*
X56313644Y-27652161D01*
X56294778Y-27940000D01*
X50150500Y-27940000D01*
X50150500Y-24800000D01*
X66494353Y-24800000D01*
X66514834Y-24942454D01*
X66574623Y-25073373D01*
X66668868Y-25182139D01*
X66668869Y-25182140D01*
X66668872Y-25182143D01*
X66789947Y-25259953D01*
X66896403Y-25291211D01*
X66928035Y-25300499D01*
X66928037Y-25300500D01*
X67044877Y-25300500D01*
X67097203Y-25322174D01*
X75077826Y-33302797D01*
X75099500Y-33355123D01*
X75099500Y-42557766D01*
X75077826Y-42610092D01*
X75072715Y-42614211D01*
X75072872Y-42614392D01*
X75068868Y-42617860D01*
X74974623Y-42726626D01*
X74914834Y-42857545D01*
X74894353Y-43000000D01*
X74914834Y-43142454D01*
X74974623Y-43273373D01*
X75068868Y-43382139D01*
X75068869Y-43382140D01*
X75068872Y-43382143D01*
X75189947Y-43459953D01*
X75296403Y-43491211D01*
X75328035Y-43500499D01*
X75328037Y-43500500D01*
X75328039Y-43500500D01*
X75471963Y-43500500D01*
X75471964Y-43500499D01*
X75610053Y-43459953D01*
X75731128Y-43382143D01*
X75825377Y-43273373D01*
X75885165Y-43142457D01*
X75905647Y-43000000D01*
X75885165Y-42857543D01*
X75825377Y-42726627D01*
X75731128Y-42617857D01*
X75731126Y-42617855D01*
X75727128Y-42614392D01*
X75729041Y-42612183D01*
X75702183Y-42573459D01*
X75700500Y-42557766D01*
X75700500Y-33160436D01*
X75700499Y-33160435D01*
X75680022Y-33084014D01*
X75680020Y-33084009D01*
X75640459Y-33015488D01*
X70564963Y-27939992D01*
X76794592Y-27939992D01*
X76794592Y-27940007D01*
X76814200Y-28226677D01*
X76814203Y-28226697D01*
X76872663Y-28508023D01*
X76872668Y-28508041D01*
X76968892Y-28778789D01*
X76968894Y-28778794D01*
X76971541Y-28783903D01*
X77101099Y-29033936D01*
X77266811Y-29268698D01*
X77462947Y-29478708D01*
X77685853Y-29660055D01*
X77931375Y-29809361D01*
X78194942Y-29923844D01*
X78471642Y-30001371D01*
X78756322Y-30040500D01*
X78756329Y-30040500D01*
X79043671Y-30040500D01*
X79043678Y-30040500D01*
X79328358Y-30001371D01*
X79605058Y-29923844D01*
X79868625Y-29809361D01*
X80114147Y-29660055D01*
X80337053Y-29478708D01*
X80533189Y-29268698D01*
X80698901Y-29033936D01*
X80831104Y-28778797D01*
X80927334Y-28508032D01*
X80985557Y-28227846D01*
X80985796Y-28226697D01*
X80985799Y-28226677D01*
X81005408Y-27940007D01*
X81005408Y-27939992D01*
X80985799Y-27653322D01*
X80985796Y-27653302D01*
X80927336Y-27371976D01*
X80927331Y-27371958D01*
X80831107Y-27101210D01*
X80831105Y-27101205D01*
X80698901Y-26846064D01*
X80698896Y-26846057D01*
X80692778Y-26837390D01*
X80533189Y-26611302D01*
X80337053Y-26401292D01*
X80114147Y-26219945D01*
X80114141Y-26219941D01*
X80114138Y-26219939D01*
X80000159Y-26150627D01*
X79868625Y-26070639D01*
X79868622Y-26070637D01*
X79868621Y-26070637D01*
X79605056Y-25956155D01*
X79328356Y-25878628D01*
X79043682Y-25839500D01*
X79043678Y-25839500D01*
X78756322Y-25839500D01*
X78756317Y-25839500D01*
X78471643Y-25878628D01*
X78194943Y-25956155D01*
X77931378Y-26070637D01*
X77931375Y-26070639D01*
X77685861Y-26219939D01*
X77685853Y-26219945D01*
X77488292Y-26380673D01*
X77462945Y-26401294D01*
X77266809Y-26611304D01*
X77101103Y-26846057D01*
X77101098Y-26846064D01*
X76968894Y-27101205D01*
X76968892Y-27101210D01*
X76872668Y-27371958D01*
X76872663Y-27371976D01*
X76814203Y-27653302D01*
X76814200Y-27653322D01*
X76794592Y-27939992D01*
X70564963Y-27939992D01*
X67521697Y-24896726D01*
X67500023Y-24844400D01*
X67500777Y-24833866D01*
X67505647Y-24800002D01*
X67505647Y-24800001D01*
X67485165Y-24657545D01*
X67485165Y-24657543D01*
X67425377Y-24526627D01*
X67331128Y-24417857D01*
X67274182Y-24381260D01*
X67210054Y-24340047D01*
X67210050Y-24340046D01*
X67071964Y-24299500D01*
X67071961Y-24299500D01*
X66928039Y-24299500D01*
X66928036Y-24299500D01*
X66789949Y-24340046D01*
X66789945Y-24340047D01*
X66668875Y-24417855D01*
X66668868Y-24417860D01*
X66574623Y-24526626D01*
X66514834Y-24657545D01*
X66494353Y-24800000D01*
X50150500Y-24800000D01*
X50150500Y-15224500D01*
X50172174Y-15172174D01*
X50224500Y-15150500D01*
X163955500Y-15150500D01*
X164007826Y-15172174D01*
G37*
%TD.AperFunction*%
%TD*%
M02*
