M48
; DRILL file {KiCad 8.0.4} date 2025-02-03T15:53:43-0500
; FORMAT={-:-/ absolute / inch / decimal}
; #@! TF.CreationDate,2025-02-03T15:53:43-05:00
; #@! TF.GenerationSoftware,Kicad,Pcbnew,8.0.4
; #@! TF.FileFunction,Plated,1,2,PTH
FMAT,2
INCH
; #@! TA.AperFunction,Plated,PTH,ViaDrill
T1C0.0118
; #@! TA.AperFunction,Plated,PTH,ComponentDrill
T2C0.0295
; #@! TA.AperFunction,Plated,PTH,ComponentDrill
T3C0.0394
; #@! TA.AperFunction,Plated,PTH,ComponentDrill
T4C0.0866
; #@! TA.AperFunction,Plated,PTH,ComponentDrill
T5C0.1063
; #@! TA.AperFunction,Plated,PTH,ComponentDrill
T6C0.1260
%
G90
G05
T1
X2.0Y-1.8819
X2.0079Y-2.6299
X2.0472Y-1.5276
X2.0866Y-1.2205
X2.2992Y-2.5984
X2.3307Y-2.7165
X2.3701Y-3.5118
X2.4252Y-2.315
X2.5197Y-0.748
X2.6142Y-0.8898
X2.6378Y-0.9764
X2.7165Y-3.189
X2.7244Y-0.8189
X2.8189Y-3.4331
X2.8504Y-2.252
X2.8976Y-2.7087
X2.9685Y-1.6929
X3.0079Y-0.9055
X3.1417Y-1.9528
X3.3465Y-0.9134
X3.4094Y-1.2913
X3.4173Y-0.8031
X3.5827Y-1.6142
X3.6299Y-3.3307
X3.8661Y-0.748
X4.3307Y-2.9291
X4.5433Y-0.748
X4.5433Y-2.5748
X4.685Y-3.5354
X4.8268Y-1.3622
X4.937Y-3.0551
X5.622Y-2.9134
X5.8583Y-1.0551
X6.0Y-1.9685
X6.2756Y-1.063
T2
X2.1594Y-2.063
X2.1594Y-2.1417
X2.1594Y-2.2205
T3
X2.5Y-2.5
X2.5Y-2.6
X2.5Y-2.7
X2.5Y-2.8
X2.5Y-2.9
X2.5Y-3.0
X2.5Y-3.1
X3.2Y-2.5
X3.2Y-2.6
X3.2Y-2.7
X3.2Y-2.8
X3.2Y-2.9
X3.2Y-3.0
X3.2Y-3.1
T5
X2.3Y-1.5
X2.3031Y-1.1
X2.4969Y-1.5
X2.5Y-1.1
X3.1063Y-1.1
X3.3031Y-1.1
T6
X2.1654Y-0.7874
X2.1654Y-3.5433
X6.2992Y-0.7874
X6.2992Y-3.5433
T4
G00X4.2878Y-1.7382
M15
G01X4.3547Y-1.7382
M16
G05
G00X5.272Y-1.3488
M15
G01X5.3705Y-1.3488
M16
G05
M30
